<svg width="50" height="51" viewBox="0 0 50 51" fill="none" xmlns="http://www.w3.org/2000/svg"><path fill-rule="evenodd" clip-rule="evenodd" d="M19.122 15.843c-.715 0-1.296.58-1.296 1.296v.78a8.417 8.417 0 00-3.247 1.333l-.52-.525a1.276 1.276 0 00-1.82 0l-.39.394a1.315 1.315 0 000 1.844l.5.506a8.64 8.64 0 00-1.382 3.307h-.671c-.716 0-1.296.58-1.296 1.296v.574c0 .715.58 1.295 1.296 1.295h.652a8.641 8.641 0 001.36 3.349l-.46.465a1.315 1.315 0 000 1.843l.39.395c.503.51 1.318.51 1.82 0l.46-.465a8.418 8.418 0 003.308 1.375v.678c0 .715.58 1.295 1.296 1.295h.535c.716 0 1.296-.58 1.296-1.295v-.697a8.424 8.424 0 003.264-1.399l.502.508c.503.51 1.319.51 1.821 0l.39-.394a1.315 1.315 0 000-1.844l-.52-.528a8.64 8.64 0 001.316-3.286h.756c.716 0 1.296-.58 1.296-1.295v-.574c0-.716-.58-1.296-1.296-1.296h-.774a8.637 8.637 0 00-1.34-3.245l.562-.568a1.315 1.315 0 000-1.844l-.39-.395a1.277 1.277 0 00-1.821 0l-.562.569a8.422 8.422 0 00-3.204-1.357v-.8c0-.715-.58-1.295-1.296-1.295h-.535zm.265 15.215c2.563 0 4.64-2.103 4.64-4.697s-2.077-4.697-4.64-4.697c-2.562 0-4.64 2.103-4.64 4.697s2.078 4.697 4.64 4.697z" fill="url(#paint0_linear_379_4323)"/><path fill-rule="evenodd" clip-rule="evenodd" d="M32.849 31.204a.72.72 0 00-.72.72v.236a3.875 3.875 0 00-1.496.615l-.15-.153a.714.714 0 00-1.018 0 .735.735 0 000 1.031l.142.144c-.31.448-.53.964-.636 1.521h-.179a.729.729 0 000 1.458h.17c.1.564.317 1.086.625 1.54l-.123.125a.735.735 0 000 1.03.714.714 0 001.018 0l.123-.124c.45.313.966.533 1.524.634v.19a.72.72 0 101.44 0v-.198a3.88 3.88 0 001.502-.644l.14.142a.714.714 0 001.019 0 .735.735 0 000-1.03l-.15-.15c.3-.45.51-.962.608-1.515h.214a.729.729 0 000-1.458h-.223a3.98 3.98 0 00-.617-1.495l.167-.17a.735.735 0 000-1.03.713.713 0 00-1.018 0l-.168.17a3.877 3.877 0 00-1.475-.624v-.245a.72.72 0 00-.72-.72zm-.002 7.006c1.18 0 2.136-.969 2.136-2.163 0-1.195-.956-2.163-2.136-2.163-1.18 0-2.137.968-2.137 2.163 0 1.194.957 2.163 2.137 2.163z" fill="url(#paint1_linear_379_4323)"/><path fill-rule="evenodd" clip-rule="evenodd" d="M34.403 9.738c-.576 0-1.042.467-1.042 1.042v.342a5.607 5.607 0 00-2.162.89l-.218-.22a1.033 1.033 0 00-1.474 0 1.064 1.064 0 000 1.491l.206.208a5.758 5.758 0 00-.92 2.202h-.257a1.055 1.055 0 100 2.11h.245c.144.816.459 1.572.905 2.23l-.177.18a1.064 1.064 0 000 1.491 1.033 1.033 0 001.473 0l.177-.18c.65.452 1.396.77 2.202.917v.274a1.042 1.042 0 002.084 0v-.285a5.614 5.614 0 002.177-.932l.203.206a1.033 1.033 0 001.474 0 1.064 1.064 0 000-1.492l-.216-.218a5.758 5.758 0 00.88-2.192h.31a1.055 1.055 0 100-2.11h-.323a5.758 5.758 0 00-.893-2.162l.243-.247a1.064 1.064 0 000-1.492 1.033 1.033 0 00-1.473 0l-.244.247a5.614 5.614 0 00-2.139-.904v-.354c0-.575-.466-1.042-1.041-1.042zm0 10.14c1.709 0 3.093-1.402 3.093-3.13 0-1.73-1.384-3.13-3.092-3.13-1.708 0-3.092 1.4-3.092 3.13 0 1.728 1.384 3.13 3.092 3.13z" fill="url(#paint2_linear_379_4323)"/><defs><linearGradient id="paint0_linear_379_4323" x1="1.811" y1="21.775" x2="43.2" y2="32.278" gradientUnits="userSpaceOnUse"><stop stop-color="#00E5FF"/><stop offset="1" stop-color="#4676E0"/></linearGradient><linearGradient id="paint1_linear_379_4323" x1="24.753" y1="33.935" x2="43.812" y2="38.772" gradientUnits="userSpaceOnUse"><stop stop-color="#00E5FF"/><stop offset="1" stop-color="#4676E0"/></linearGradient><linearGradient id="paint2_linear_379_4323" x1="22.69" y1="13.691" x2="50.274" y2="20.691" gradientUnits="userSpaceOnUse"><stop stop-color="#00E5FF"/><stop offset="1" stop-color="#4676E0"/></linearGradient></defs></svg>