<svg width="50" height="50" viewBox="0 0 50 50" fill="none" xmlns="http://www.w3.org/2000/svg"><path fill-rule="evenodd" clip-rule="evenodd" d="M19.122 15.105c-.715 0-1.296.58-1.296 1.296v.78a8.416 8.416 0 00-3.247 1.334l-.52-.526a1.277 1.277 0 00-1.82 0l-.39.395a1.315 1.315 0 000 1.843l.5.507a8.64 8.64 0 00-1.382 3.306h-.671C9.58 24.04 9 24.62 9 25.336v.574c0 .716.58 1.296 1.296 1.296h.652a8.64 8.64 0 001.36 3.348l-.46.465a1.315 1.315 0 000 1.844l.39.394c.503.51 1.318.51 1.82 0l.46-.465a8.42 8.42 0 003.308 1.376v.677c0 .716.58 1.296 1.296 1.296h.535c.716 0 1.296-.58 1.296-1.296v-.697a8.424 8.424 0 003.264-1.399l.502.509c.503.509 1.319.509 1.821 0l.39-.395a1.315 1.315 0 000-1.844l-.52-.527a8.638 8.638 0 001.316-3.286h.756c.716 0 1.296-.58 1.296-1.296v-.574c0-.716-.58-1.296-1.296-1.296h-.774a8.637 8.637 0 00-1.34-3.244l.562-.57a1.315 1.315 0 000-1.843l-.39-.394a1.277 1.277 0 00-1.821 0l-.562.568a8.42 8.42 0 00-3.204-1.356v-.8c0-.715-.58-1.296-1.296-1.296h-.535zm.265 15.215c2.563 0 4.64-2.103 4.64-4.697s-2.077-4.697-4.64-4.697c-2.562 0-4.64 2.103-4.64 4.697s2.078 4.697 4.64 4.697z" fill="url(#paint0_linear_350_7603)"/><path fill-rule="evenodd" clip-rule="evenodd" d="M32.848 30.465a.72.72 0 00-.72.72v.236c-.546.099-1.053.312-1.496.615l-.15-.153a.714.714 0 00-1.018 0 .735.735 0 000 1.031l.142.144c-.31.448-.53.964-.636 1.521h-.179a.729.729 0 000 1.458h.17c.1.563.317 1.086.625 1.54l-.123.125a.735.735 0 000 1.03.714.714 0 001.018 0l.123-.124c.45.313.966.533 1.524.635v.188a.72.72 0 101.44 0v-.197c.55-.107 1.06-.33 1.502-.644l.14.142a.713.713 0 001.019 0 .735.735 0 000-1.03l-.149-.151c.299-.448.51-.961.607-1.514h.214a.729.729 0 000-1.458h-.222a3.979 3.979 0 00-.618-1.495l.167-.17a.735.735 0 000-1.03.714.714 0 00-1.018 0l-.168.17a3.878 3.878 0 00-1.474-.624v-.245a.72.72 0 00-.72-.72zm-.002 7.006c1.18 0 2.136-.969 2.136-2.163 0-1.195-.956-2.163-2.136-2.163-1.18 0-2.136.968-2.136 2.163 0 1.194.956 2.163 2.136 2.163z" fill="url(#paint1_linear_350_7603)"/><path fill-rule="evenodd" clip-rule="evenodd" d="M34.404 9c-.576 0-1.042.466-1.042 1.042v.342a5.61 5.61 0 00-2.163.89l-.217-.221a1.033 1.033 0 00-1.473 0 1.064 1.064 0 000 1.492l.205.208a5.755 5.755 0 00-.92 2.201h-.257a1.055 1.055 0 000 2.11h.245c.144.816.459 1.573.905 2.23l-.177.18a1.064 1.064 0 000 1.492 1.033 1.033 0 001.473 0l.177-.18a5.61 5.61 0 002.202.917v.274a1.042 1.042 0 102.084 0v-.286a5.615 5.615 0 002.177-.931l.203.206a1.033 1.033 0 001.474 0 1.064 1.064 0 000-1.492l-.216-.218a5.759 5.759 0 00.88-2.192h.31a1.055 1.055 0 100-2.11h-.323a5.757 5.757 0 00-.893-2.163l.243-.246a1.064 1.064 0 000-1.492 1.033 1.033 0 00-1.473 0l-.244.247a5.613 5.613 0 00-2.139-.905v-.353c0-.576-.466-1.042-1.041-1.042zm0 10.14c1.708 0 3.093-1.402 3.093-3.13 0-1.73-1.385-3.131-3.092-3.131-1.708 0-3.092 1.401-3.092 3.13 0 1.73 1.384 3.13 3.092 3.13z" fill="url(#paint2_linear_350_7603)"/><defs><linearGradient id="paint0_linear_350_7603" x1="9" y1="15.105" x2="34.147" y2="26.485" gradientUnits="userSpaceOnUse"><stop stop-color="#6CCB54"/><stop offset="1" stop-color="#047C10"/></linearGradient><linearGradient id="paint1_linear_350_7603" x1="28.063" y1="30.465" x2="39.642" y2="35.705" gradientUnits="userSpaceOnUse"><stop stop-color="#6CCB54"/><stop offset="1" stop-color="#047C10"/></linearGradient><linearGradient id="paint2_linear_350_7603" x1="27.482" y1="9" x2="44.241" y2="16.584" gradientUnits="userSpaceOnUse"><stop stop-color="#6CCB54"/><stop offset="1" stop-color="#047C10"/></linearGradient></defs></svg>