<svg width="120" height="100" viewBox="0 0 120 100" fill="none" xmlns="http://www.w3.org/2000/svg"><rect width="120" height="100" rx="8" fill="#fff"/><path d="M0 8a8 8 0 018-8h104a8 8 0 018 8v22H0V8z" fill="#FFF495"/><path d="M16.494 22V10.228h3.15c1.8 0 3.204.486 4.212 1.458 1.008.972 1.512 2.43 1.512 4.374 0 .972-.132 1.83-.396 2.574-.252.744-.624 1.368-1.116 1.872a4.62 4.62 0 01-1.764 1.116c-.684.252-1.464.378-2.34.378h-3.258zm2.088-1.692h.918c1.2 0 2.118-.342 2.754-1.026.648-.696.972-1.77.972-3.222 0-1.44-.324-2.49-.972-3.15-.648-.66-1.566-.99-2.754-.99h-.918v8.388zM28.144 22V10.228h7.092v1.764h-5.004v3.006h4.23v1.764h-4.23v3.474h5.184V22h-7.272zm14.784.216a5.48 5.48 0 01-2.088-.396 4.715 4.715 0 01-1.693-1.17c-.468-.516-.84-1.152-1.115-1.908-.276-.756-.414-1.62-.414-2.592 0-.96.137-1.818.413-2.574.288-.768.672-1.416 1.153-1.944a4.989 4.989 0 011.71-1.206 5.403 5.403 0 012.105-.414c.744 0 1.404.15 1.98.45.577.3 1.05.648 1.422 1.044l-1.116 1.35a3.88 3.88 0 00-1.007-.738 2.56 2.56 0 00-1.224-.288c-.48 0-.925.102-1.333.306a3.041 3.041 0 00-1.043.846c-.288.36-.517.804-.684 1.332a6.284 6.284 0 00-.234 1.782c0 1.344.288 2.4.864 3.168.587.756 1.38 1.134 2.375 1.134.529 0 .996-.108 1.404-.324.409-.228.78-.522 1.117-.882l1.115 1.314a5.126 5.126 0 01-1.655 1.278c-.612.288-1.296.432-2.052.432zM49 22V10.228h7.092v1.764h-5.004v3.006h4.23v1.764h-4.23v3.474h5.184V22H49zm10.085 0V10.228h2.358l2.088 5.76c.132.372.258.756.378 1.152.12.384.246.768.378 1.152h.072a21.2 21.2 0 00.36-1.152c.12-.396.246-.78.378-1.152l2.034-5.76h2.376V22h-1.926v-5.382c0-.276.006-.576.018-.9l.072-.972c.024-.336.054-.66.09-.972.036-.324.066-.624.09-.9h-.072l-.954 2.736-1.926 5.292h-1.242l-1.944-5.292-.936-2.736h-.072c.024.276.048.576.072.9.036.312.066.636.09.972.036.324.06.648.072.972.024.324.036.624.036.9V22h-1.89zm13.812 0V10.228h3.762c.612 0 1.17.054 1.674.162.516.096.96.258 1.332.486.384.216.678.51.882.882.216.372.324.828.324 1.368 0 .564-.144 1.086-.432 1.566-.288.48-.69.81-1.206.99v.072c.648.144 1.182.45 1.602.918.432.456.648 1.08.648 1.872 0 .588-.114 1.098-.342 1.53a3.05 3.05 0 01-.954 1.08 4.19 4.19 0 01-1.422.648 7.732 7.732 0 01-1.8.198h-4.068zm2.088-6.912h1.494c.828 0 1.422-.15 1.782-.45.372-.3.558-.702.558-1.206 0-.576-.192-.984-.576-1.224-.384-.24-.96-.36-1.728-.36h-1.53v3.24zm0 5.292h1.764c.864 0 1.53-.156 1.998-.468.468-.324.702-.816.702-1.476 0-.624-.228-1.074-.684-1.35-.456-.288-1.128-.432-2.016-.432h-1.764v3.726zM84.038 22V10.228h7.093v1.764h-5.005v3.006h4.23v1.764h-4.23v3.474h5.184V22h-7.272zm10.086 0V10.228h3.978c.612 0 1.182.06 1.71.18s.984.318 1.368.594c.384.264.684.618.9 1.062.228.444.342.996.342 1.656 0 .9-.216 1.626-.648 2.178-.42.552-.984.948-1.692 1.188L102.89 22h-2.34l-2.538-4.608h-1.8V22h-2.088zm2.088-6.264h1.674c.804 0 1.416-.168 1.836-.504.432-.336.648-.84.648-1.512 0-.684-.216-1.158-.648-1.422-.42-.264-1.032-.396-1.836-.396h-1.674v3.834zM30.736 85v-6.016h9.088V52.232h-7.488v-4.608c2.048-.384 3.797-.832 5.248-1.344a24.944 24.944 0 004.16-1.984h5.504v34.688h8V85H30.736zM75.66 85.768c-2.005 0-3.861-.277-5.568-.832-1.664-.555-3.114-1.323-4.352-2.304a11.487 11.487 0 01-2.88-3.52c-.682-1.365-1.024-2.88-1.024-4.544 0-1.28.192-2.432.576-3.456a11.291 11.291 0 011.664-2.88 14.705 14.705 0 012.304-2.304 19.6 19.6 0 012.816-1.792v-.256a16.966 16.966 0 01-4.032-3.968c-1.066-1.536-1.6-3.392-1.6-5.568 0-1.664.299-3.157.896-4.48a10.632 10.632 0 012.56-3.392c1.11-.939 2.411-1.664 3.904-2.176 1.536-.512 3.179-.768 4.928-.768 1.835 0 3.478.277 4.928.832 1.494.512 2.752 1.259 3.776 2.24a9.083 9.083 0 012.432 3.456c.555 1.323.832 2.816.832 4.48 0 1.024-.17 2.005-.512 2.944-.298.896-.704 1.75-1.216 2.56a14.274 14.274 0 01-1.792 2.176c-.64.64-1.28 1.195-1.92 1.664v.256c.939.512 1.835 1.11 2.688 1.792.854.64 1.6 1.387 2.24 2.24.64.853 1.152 1.813 1.536 2.88.384 1.067.576 2.283.576 3.648 0 1.579-.341 3.05-1.024 4.416-.64 1.323-1.557 2.496-2.752 3.52-1.194.981-2.645 1.75-4.352 2.304-1.706.555-3.584.832-5.632.832zm2.688-23.744c1.11-1.11 1.942-2.24 2.496-3.392a7.816 7.816 0 00.896-3.648c0-1.792-.533-3.264-1.6-4.416-1.024-1.195-2.496-1.792-4.416-1.792-1.578 0-2.901.49-3.968 1.472-1.066.939-1.6 2.304-1.6 4.096 0 1.024.214 1.92.64 2.688a7.138 7.138 0 001.728 2.048 21.353 21.353 0 002.624 1.6c.982.47 2.048.917 3.2 1.344zm-2.56 18.496c1.963 0 3.563-.533 4.8-1.6 1.28-1.067 1.92-2.56 1.92-4.48 0-1.11-.256-2.048-.768-2.816-.512-.81-1.216-1.515-2.112-2.112-.853-.64-1.877-1.216-3.072-1.728a218.55 218.55 0 00-3.84-1.6 13.159 13.159 0 00-3.2 3.328c-.81 1.28-1.216 2.71-1.216 4.288 0 2.048.726 3.69 2.176 4.928 1.451 1.195 3.222 1.792 5.312 1.792z" fill="#121212"/></svg>