<svg width="120" height="100" viewBox="0 0 120 100" fill="none" xmlns="http://www.w3.org/2000/svg"><rect width="120" height="100" rx="8" fill="#fff"/><path d="M0 8a8 8 0 018-8h104a8 8 0 018 8v22H0V8z" fill="#FF7D69"/><path d="M16.386 22V10.264h3.312c.9 0 1.71.114 2.43.342.72.228 1.338.582 1.854 1.062.516.468.912 1.068 1.188 1.8.276.732.414 1.602.414 2.61 0 1.008-.138 1.884-.414 2.628-.276.744-.666 1.362-1.17 1.854-.504.48-1.11.84-1.818 1.08-.696.24-1.476.36-2.34.36h-3.456zm2.646-2.142h.504c.504 0 .96-.066 1.368-.198a2.57 2.57 0 001.044-.63c.288-.3.51-.69.666-1.17.168-.48.252-1.074.252-1.782 0-.696-.084-1.278-.252-1.746-.156-.48-.378-.858-.666-1.134a2.412 2.412 0 00-1.044-.612 4.842 4.842 0 00-1.368-.18h-.504v7.452zM28.212 22V10.264h7.344v2.232h-4.698v2.358h3.996v2.214h-3.996v2.7h4.878V22h-7.524zM43.37 22.216a5.853 5.853 0 01-2.107-.378 5.15 5.15 0 01-1.746-1.152c-.492-.504-.882-1.128-1.17-1.872-.288-.756-.432-1.626-.432-2.61 0-.972.15-1.836.45-2.592.3-.768.702-1.416 1.206-1.944a5.083 5.083 0 011.764-1.206 5.536 5.536 0 012.124-.414c.756 0 1.434.156 2.034.468.6.3 1.098.654 1.494 1.062l-1.404 1.692a4.152 4.152 0 00-.954-.666 2.26 2.26 0 00-1.116-.27c-.396 0-.774.09-1.134.27a2.686 2.686 0 00-.918.738c-.252.324-.456.72-.612 1.188a5.38 5.38 0 00-.216 1.584c0 1.212.258 2.154.774 2.826.516.66 1.206.99 2.07.99.48 0 .906-.102 1.278-.306.384-.216.72-.48 1.008-.792l1.404 1.656c-.984 1.152-2.25 1.728-3.798 1.728zM49.35 22V10.264h7.344v2.232h-4.698v2.358h3.996v2.214h-3.996v2.7h4.878V22H49.35zM59.611 22V10.264h2.898l1.89 5.22c.12.348.234.708.342 1.08.108.36.222.72.342 1.08h.072c.12-.36.228-.72.324-1.08.108-.372.222-.732.342-1.08l1.854-5.22h2.88V22h-2.412v-4.302c0-.288.012-.606.036-.954.024-.348.054-.696.09-1.044.036-.36.072-.708.108-1.044.036-.348.072-.666.108-.954h-.072l-.954 2.79-1.674 4.482h-1.458l-1.674-4.482-.936-2.79h-.072c.036.288.072.606.108.954.036.336.072.684.108 1.044.036.348.066.696.09 1.044.024.348.036.666.036.954V22h-2.376zM73.722 22V10.264h4.014c.612 0 1.176.048 1.692.144.528.084.984.24 1.368.468.396.228.702.528.918.9.228.372.342.84.342 1.404a3.087 3.087 0 01-.414 1.53 2.664 2.664 0 01-.486.612c-.18.18-.39.312-.63.396v.072c.3.072.576.186.828.342A2.464 2.464 0 0182.47 17.5c.108.3.162.648.162 1.044 0 .6-.12 1.116-.36 1.548a2.988 2.988 0 01-.972 1.08 4.637 4.637 0 01-1.44.63 7.649 7.649 0 01-1.782.198h-4.356zm2.646-7.038h1.242c.648 0 1.116-.126 1.404-.378.3-.252.45-.588.45-1.008 0-.456-.15-.78-.45-.972-.3-.192-.762-.288-1.386-.288h-1.26v2.646zm0 4.986h1.494c1.452 0 2.178-.528 2.178-1.584 0-.516-.18-.882-.54-1.098-.36-.228-.906-.342-1.638-.342h-1.494v3.024zM85.02 22V10.264h7.344v2.232h-4.698v2.358h3.996v2.214h-3.996v2.7h4.878V22H85.02zM95.282 22V10.264h4.23c.624 0 1.206.06 1.746.18.552.12 1.032.324 1.44.612.408.276.732.648.972 1.116.24.468.36 1.05.36 1.746 0 .864-.192 1.578-.576 2.142a3.422 3.422 0 01-1.512 1.242L104.606 22h-2.97l-2.25-4.23h-1.458V22h-2.646zm2.646-6.336h1.368c.696 0 1.224-.144 1.584-.432.372-.3.558-.738.558-1.314 0-.576-.186-.978-.558-1.206-.36-.228-.888-.342-1.584-.342h-1.368v3.294zM31.736 84v-6.016h9.088V51.232h-7.488v-4.608c2.048-.384 3.797-.832 5.248-1.344a24.944 24.944 0 004.16-1.984h5.504v34.688h8V84H31.736zM76.66 84.768c-2.005 0-3.86-.277-5.567-.832-1.665-.555-3.115-1.323-4.353-2.304a11.486 11.486 0 01-2.88-3.52c-.682-1.365-1.023-2.88-1.023-4.544 0-1.28.191-2.432.575-3.456a11.291 11.291 0 011.664-2.88 14.714 14.714 0 012.305-2.304 19.6 19.6 0 012.816-1.792v-.256a16.964 16.964 0 01-4.032-3.968c-1.067-1.536-1.6-3.392-1.6-5.568 0-1.664.298-3.157.895-4.48a10.634 10.634 0 012.56-3.392c1.11-.939 2.411-1.664 3.904-2.176 1.536-.512 3.18-.768 4.928-.768 1.835 0 3.478.277 4.928.832 1.494.512 2.752 1.259 3.776 2.24a9.085 9.085 0 012.433 3.456c.554 1.323.831 2.816.831 4.48 0 1.024-.17 2.005-.511 2.944-.3.896-.704 1.75-1.216 2.56a14.274 14.274 0 01-1.793 2.176c-.64.64-1.28 1.195-1.92 1.664v.256c.94.512 1.835 1.11 2.689 1.792.853.64 1.6 1.387 2.24 2.24.64.853 1.151 1.813 1.535 2.88.385 1.067.577 2.283.577 3.648 0 1.579-.342 3.05-1.025 4.416-.64 1.323-1.557 2.496-2.752 3.52-1.194.981-2.645 1.75-4.352 2.304-1.706.555-3.584.832-5.632.832zm2.689-23.744c1.109-1.11 1.94-2.24 2.495-3.392a7.816 7.816 0 00.897-3.648c0-1.792-.534-3.264-1.6-4.416-1.025-1.195-2.497-1.792-4.416-1.792-1.58 0-2.902.49-3.968 1.472-1.067.939-1.6 2.304-1.6 4.096 0 1.024.213 1.92.64 2.688a7.136 7.136 0 001.728 2.048 21.34 21.34 0 002.623 1.6c.982.47 2.049.917 3.2 1.344zm-2.56 18.496c1.962 0 3.562-.533 4.8-1.6 1.28-1.067 1.92-2.56 1.92-4.48 0-1.11-.257-2.048-.769-2.816-.511-.81-1.215-1.515-2.111-2.112-.854-.64-1.878-1.216-3.073-1.728a219.317 219.317 0 00-3.84-1.6 13.16 13.16 0 00-3.2 3.328c-.81 1.28-1.216 2.71-1.216 4.288 0 2.048.726 3.69 2.177 4.928 1.45 1.195 3.22 1.792 5.311 1.792z" fill="#121212"/></svg>