<svg width="9" height="8" viewBox="0 0 9 8" fill="none" xmlns="http://www.w3.org/2000/svg">
<path d="M8.00589 7.99965V5.06565C8.00589 3.63065 7.69689 2.52465 6.01889 2.52465C5.70384 2.5129 5.39151 2.58687 5.11519 2.73868C4.83887 2.89049 4.60894 3.11443 4.44989 3.38665H4.42889V2.65865H2.83789V7.99965H4.49489V5.35065C4.49489 4.65065 4.62689 3.98065 5.48889 3.98065C6.35089 3.98065 6.34889 4.77965 6.34889 5.39965V7.99965H8.00589Z" fill="#F4F8F8"/>
<path d="M0.144043 2.65918H1.79904V8.00018H0.144043V2.65918Z" fill="#F4F8F8"/>
<path d="M0.968992 8.2597e-06C0.777795 -0.000782639 0.590672 0.0552417 0.431367 0.160972C0.272062 0.266703 0.147756 0.417374 0.0742224 0.593867C0.000688531 0.77036 -0.0187586 0.96472 0.0183485 1.15228C0.0554556 1.33985 0.147444 1.51216 0.282642 1.64736C0.41784 1.78256 0.590154 1.87454 0.777717 1.91165C0.965281 1.94876 1.15964 1.92931 1.33613 1.85578C1.51263 1.78224 1.6633 1.65794 1.76903 1.49863C1.87476 1.33933 1.93078 1.15221 1.92999 0.961008C1.92999 0.706135 1.82874 0.461701 1.64852 0.281479C1.4683 0.101256 1.22387 8.2597e-06 0.968992 8.2597e-06Z" fill="#F4F8F8"/>
</svg>
