<svg width="40" height="40" viewBox="0 0 40 40" fill="none" xmlns="http://www.w3.org/2000/svg"><path d="M35.93 13.042c.046-.348.07-.696.07-1.042 0-4.758-4.286-8.576-9.042-7.93A7.99 7.99 0 0020 0a7.99 7.99 0 00-6.958 4.07C8.276 3.424 4 7.242 4 12c0 .346.024.694.07 1.042A7.995 7.995 0 000 20c0 2.93 1.604 5.57 4.07 6.958-.046.345-.07.694-.07 1.042 0 4.758 4.276 8.566 9.042 7.93A7.99 7.99 0 0020 40a7.99 7.99 0 006.958-4.07C31.714 36.566 36 32.758 36 28c0-.346-.024-.694-.07-1.042A7.995 7.995 0 0040 20c0-2.93-1.604-5.57-4.07-6.958zm-18.02 15.79l-7.334-7.428 2.848-2.808 4.514 4.572 8.654-8.588 2.816 2.84L17.91 28.832z" fill="url(#paint0_linear_379_4322)"/><defs><linearGradient id="paint0_linear_379_4322" x1="67" y1="-19" x2="3" y2="40" gradientUnits="userSpaceOnUse"><stop stop-color="#DADE1B"/><stop offset=".49" stop-color="#A0952E"/><stop offset=".839" stop-color="#F4DD09"/></linearGradient></defs></svg>