<svg width="33" height="33" viewBox="0 0 33 33" fill="none" xmlns="http://www.w3.org/2000/svg">
<path d="M15.5626 6.62596L15.6159 6.79263C15.7816 7.32232 15.7194 7.89283 15.4431 8.37919C15.1668 8.86566 14.6987 9.22849 14.1411 9.38859L13.9655 9.43909C13.4852 9.57636 12.9696 9.55141 12.5067 9.36838L4.21593 19.3987C4.33044 19.5638 4.41836 19.7442 4.47681 19.934L4.53005 20.1007C4.6974 20.6298 4.63668 21.2002 4.36119 21.6869C4.08571 22.1735 3.61797 22.5367 3.0606 22.6967L2.8849 22.7472C2.32574 22.9059 1.72305 22.8477 1.20904 22.5855C0.695022 22.3231 0.311642 21.8782 0.14299 21.3482L0.0897487 21.1815C-0.0744614 20.6517 -0.0116744 20.0819 0.264468 19.5959C0.54061 19.1098 1.0078 18.7468 1.56453 18.5856L1.74022 18.5351C2.16804 18.4062 2.62745 18.4062 3.05527 18.5351L11.4034 8.43404C11.3309 8.30525 11.272 8.1699 11.2278 8.03L11.1745 7.86333C11.0089 7.33354 11.071 6.76313 11.3474 6.27667C11.6236 5.7903 12.0918 5.42737 12.6493 5.26737L12.8251 5.21687C13.3851 5.0598 13.9879 5.12 14.5011 5.38414C15.0144 5.64838 15.3962 6.09495 15.5626 6.62596ZM14.6841 15.2977L14.5085 15.3482C13.9509 15.5082 13.4828 15.8711 13.2065 16.3575C12.9302 16.8439 12.8681 17.4143 13.0337 17.9441L13.087 18.1108C13.1312 18.2507 13.19 18.3861 13.2626 18.5149L5.60019 27.7775C5.17201 27.6508 4.71333 27.6508 4.28514 27.7775L4.10944 27.828C3.56084 27.9922 3.10195 28.3539 2.83122 28.8355C2.5605 29.317 2.49949 29.88 2.66129 30.4037L2.71454 30.5704C2.88324 31.0993 3.26579 31.5433 3.77857 31.8055C4.29134 32.0676 4.89267 32.1266 5.45112 31.9694L5.62682 31.9189C6.1861 31.7526 6.65311 31.3828 6.92556 30.8906C7.19799 30.3984 7.25364 29.8237 7.08029 29.2926L7.02706 29.126C6.96401 28.9395 6.87635 28.7613 6.76617 28.5957L14.3743 19.4391C14.8373 19.6221 15.3529 19.6471 15.8331 19.5098L16.0088 19.4593C16.5664 19.2992 17.0344 18.9364 17.3108 18.4499C17.5872 17.9635 17.6493 17.393 17.4836 16.8633L17.4304 16.6967C17.2617 16.1657 16.8777 15.72 16.3627 15.4577C15.8477 15.1953 15.2439 15.1378 14.6841 15.2977ZM26.8551 0.0855453L26.6794 0.13605C26.1222 0.298333 25.6551 0.662384 25.379 1.14927C25.1029 1.63616 25.0402 2.20665 25.2046 2.73706L25.2579 2.90373C25.3035 3.04388 25.3642 3.17926 25.4389 3.30777L20.3597 9.44414C19.9318 9.31525 19.4724 9.31525 19.0446 9.44414L18.8689 9.49465C18.3115 9.65455 17.8438 10.0177 17.5684 10.5043C17.2928 10.991 17.2321 11.5615 17.3995 12.0906L17.4474 12.2573C17.6206 12.7837 18.0056 13.2242 18.5188 13.4832C19.032 13.7423 19.6322 13.799 20.1893 13.6411L20.365 13.5906C20.6416 13.5108 20.8989 13.3801 21.1222 13.2059C21.3455 13.0317 21.5304 12.8175 21.6663 12.5754C21.8021 12.3333 21.8864 12.0682 21.9141 11.7953C21.9419 11.5222 21.9126 11.2468 21.8281 10.9845L21.7801 10.8179C21.7176 10.6287 21.628 10.4486 21.5139 10.2825L26.5293 4.22191C26.9954 4.40039 27.5116 4.42354 27.9933 4.28757L28.1691 4.23706C28.7265 4.07712 29.1941 3.71398 29.4697 3.22731C29.7452 2.74065 29.8059 2.17019 29.6385 1.6411L29.5853 1.47443C29.4143 0.948778 29.0318 0.508222 28.5208 0.248242C28.0097 -0.0117377 27.4112 -0.0701921 26.8551 0.0855453ZM29.235 9.17646C28.6527 9.34121 28.1628 9.71788 27.8723 10.2241C27.5818 10.7304 27.5143 11.3252 27.6845 11.8785V11.9643C27.7276 12.1046 27.7865 12.2401 27.8603 12.3684L21.2265 20.5098C21.216 20.5238 21.201 20.5344 21.1837 20.5399C21.1666 20.5454 21.1479 20.5454 21.1306 20.5401C20.7207 20.4238 20.2839 20.4238 19.8741 20.5401L19.7889 20.5654C19.2076 20.7324 18.7196 21.1108 18.4313 21.618C18.143 22.1252 18.078 22.7199 18.2503 23.2724C18.4219 23.8276 18.819 24.2954 19.3541 24.5728C19.8893 24.8504 20.5187 24.9148 21.1039 24.7522C21.6852 24.5853 22.1728 24.2066 22.4602 23.6992C22.7477 23.1918 22.8113 22.597 22.6374 22.0452L22.6107 21.9643C22.5597 21.7643 22.4753 21.5733 22.3605 21.3987L28.973 13.3179C28.9867 13.3048 29.0038 13.2957 29.0225 13.2912C29.0413 13.2868 29.061 13.2873 29.0795 13.2926C29.5281 13.4544 30.0206 13.4704 30.4797 13.3381L30.5702 13.3128C31.1502 13.1458 31.6369 12.768 31.9242 12.2617C32.2115 11.7555 32.276 11.162 32.1035 10.6108C31.9231 10.0608 31.5207 9.60071 30.9841 9.33111C30.4475 9.06141 29.8203 9.00404 29.2392 9.17142L29.235 9.17646Z" fill="url(#paint0_linear)"/>
<defs>
<linearGradient id="paint0_linear" x1="-11.1406" y1="9.0397" x2="52.8666" y2="25.5572" gradientUnits="userSpaceOnUse">
<stop stop-color="#00E5FF"/>
<stop offset="1" stop-color="#4676E0"/>
</linearGradient>
</defs>
</svg>
