<svg width="220" height="129" viewBox="0 0 220 129" fill="none" xmlns="http://www.w3.org/2000/svg">
<path fill-rule="evenodd" clip-rule="evenodd" d="M207.354 6.13696L209.072 0.558838L204.137 3.67432L198.559 1.95557L201.674 6.8916L199.955 12.4697L204.891 9.354L210.469 11.073L207.354 6.13696ZM67.9023 11.7581L69.0488 8.03906L65.7578 10.1162L62.0391 8.97021L64.1152 12.261L62.9707 15.9797L66.2617 13.9026L69.9805 15.0486L67.9023 11.7581ZM142.557 13.666C149.311 12.1665 156.619 11.761 164.832 12.3457C165.242 20.6357 164.76 27.9773 163.354 34.6638C156.725 33.1035 152.443 31.1506 149.393 28.1191C146.299 25.0452 144.24 20.6357 142.557 13.666ZM138.684 14.6638C131.754 16.7036 125.371 19.9902 119.123 24.6467C107.578 33.2507 96.3457 46.6355 83.1504 66.0339L91.0332 73.9177C92.1992 72.7292 93.3711 71.6511 94.5332 70.7295L94.8242 70.498L95.1797 70.387C97.2441 69.7424 99.8848 69.3735 101.918 69.1631C102.953 69.0559 103.867 68.9863 104.521 68.9434L105.299 68.8977L105.514 68.8872L105.57 68.8845L105.588 68.8838C105.594 68.8835 105.594 68.8835 105.676 70.8818L105.594 68.8835L107.656 68.8L107.676 70.864V70.8882V70.9485V71.1707L107.666 71.9768C107.658 72.374 107.646 72.8625 107.623 73.4141L107.588 74.2012L107.561 74.6787C107.516 75.4241 107.451 76.2502 107.361 77.1021C107.195 78.6562 106.939 80.2964 106.535 81.6902L106.393 82.1848L106.029 82.5488C105.027 83.551 103.908 84.5681 102.703 85.5864L111.41 94.2949C129.537 82.3232 142.555 71.8804 151.238 60.613C156.477 53.8152 160.18 46.6565 162.41 38.5515C155.492 36.9219 150.381 34.7395 146.572 30.9565C142.723 27.1311 140.434 21.8936 138.684 14.6638ZM90.4082 94.5049C93.4727 92.5192 96.6523 90.3367 99.5645 88.105L107.99 96.5323L105.732 97.9891L103.967 99.1179C102.182 100.255 100.354 101.408 98.4805 102.578L90.4082 94.5049ZM88.3301 76.8706L80.873 69.4128C78.8711 72.4097 76.8203 75.542 74.7168 78.8137L81.5938 85.6907C83.6621 82.7051 85.9551 79.6284 88.3301 76.8706ZM97.8965 107.651L86.9453 96.6996L86.709 96.8458C83.4336 98.8737 80.459 100.599 78.3047 101.819C77.2266 102.428 76.3516 102.912 75.7461 103.244L75.0469 103.625L74.8613 103.724L74.8145 103.75L74.7969 103.759L68.9355 106.885L72.0977 101.042L72.1074 101.024L72.1328 100.975L72.2363 100.786L72.6309 100.075C72.9766 99.4601 73.4785 98.5756 74.1113 97.4899L74.7012 96.4867L75.4082 95.3018C75.8125 94.6317 76.2461 93.9193 76.707 93.174C77.4961 91.897 78.3652 90.5232 79.2988 89.0994L79.3164 89.0713L69.6133 79.3672C71.7676 75.9868 73.8691 72.7415 75.9258 69.6279L58.7227 69.228L78.7109 51.9666L88.7227 51.2512C114.178 16.9985 134.625 5.24194 168.607 8.65649C171.354 44.8674 158.684 65.1648 127.176 88.2451L126.363 99.6196L109.102 119.606L108.666 100.859C105.232 103.07 101.645 105.329 97.8965 107.651ZM102.824 80.0928C98.9004 83.9126 93.0527 88.0552 87.5137 91.6108L84.4707 88.5669C88.2344 83.0747 92.6367 77.4431 96.7246 74.1006C98.3516 73.6399 100.48 73.3333 102.33 73.1418C102.795 73.0935 103.236 73.0535 103.637 73.02C103.621 73.4514 103.598 73.9299 103.568 74.4377C103.502 75.5452 103.395 76.7466 103.234 77.8867L103.117 78.6533L103.029 79.1509C102.967 79.4775 102.898 79.793 102.824 80.0928ZM84.0391 93.7931L82.207 91.9619C81.1211 93.6353 80.1309 95.2264 79.2656 96.6525C80.709 95.8091 82.3281 94.8453 84.0391 93.7931ZM80.3203 55.8618L69.1934 65.4702L78.1426 65.6785L85.3398 55.5032L80.3203 55.8618ZM122.469 98.0101L112.859 109.136L112.65 100.186L122.826 92.9891L122.469 98.0101ZM120.527 56.7422C125.604 61.8191 133.834 61.8191 138.912 56.7422C143.988 51.6655 143.988 43.4343 138.912 38.3574C133.834 33.2805 125.604 33.2805 120.527 38.3574C115.449 43.4343 115.449 51.6655 120.527 56.7422ZM117.699 59.5706C124.338 66.2095 135.102 66.2095 141.74 59.5706C148.379 52.9316 148.379 42.168 141.74 35.5291C135.102 28.8901 124.338 28.8901 117.699 35.5291C111.059 42.168 111.059 52.9316 117.699 59.5706ZM11.0586 43.5447L9.33984 49.1228L12.4551 54.0588L6.87695 52.3398L1.94141 55.4556L3.66016 49.8774L0.544922 44.9414L6.12305 46.6602L11.0586 43.5447ZM190.049 112.039L188.902 115.758L190.98 119.049L187.262 117.903L183.971 119.98L185.115 116.261L183.039 112.97L186.758 114.116L190.049 112.039ZM218.072 71.5588L216.354 77.137L219.469 82.073L213.891 80.354L208.955 83.4697L210.674 77.8916L207.559 72.9556L213.137 74.6743L218.072 71.5588ZM35.3535 122.137L37.0723 116.559L32.1367 119.674L26.5586 117.955L29.6738 122.891L27.9551 128.47L32.8906 125.354L38.4688 127.073L35.3535 122.137Z" fill="url(#paint0_linear_4340_42321)"/>
<defs>
<linearGradient id="paint0_linear_4340_42321" x1="31.1172" y1="112" x2="38.186" y2="131.477" gradientUnits="userSpaceOnUse">
<stop stop-color="#E6A46A"/>
<stop offset="1" stop-color="#D16C13"/>
</linearGradient>
</defs>
</svg>
