<svg width="50" height="51" viewBox="0 0 50 51" fill="none" xmlns="http://www.w3.org/2000/svg"><path fill-rule="evenodd" clip-rule="evenodd" d="M27.32 22.45c-4.87 0-9.071 1.811-11.021 4.427a13.813 13.813 0 01-1.773-.79L9 26.874l2.69-2.992c-.943-1.096-1.48-2.354-1.48-3.691 0-4.263 5.454-7.72 12.181-7.72 6.727 0 12.18 3.457 12.18 7.72 0 1.177-.415 2.294-1.16 3.292-1.792-.657-3.873-1.033-6.092-1.033zm-11.562 8.793c0 4.263 5.453 7.719 12.18 7.719 2.998 0 5.743-.687 7.865-1.825l5.525.789-2.69-2.991c.944-1.097 1.481-2.355 1.481-3.693 0-4.263-5.453-7.719-12.18-7.719-6.728 0-12.181 3.456-12.181 7.72z" fill="url(#paint0_linear_350_7656)"/><defs><linearGradient id="paint0_linear_350_7656" x1="9" y1="12.473" x2="44.912" y2="32.552" gradientUnits="userSpaceOnUse"><stop stop-color="#C57041"/><stop offset="1" stop-color="#FFAD4D"/></linearGradient></defs></svg>