<svg width="520" height="364" viewBox="0 0 520 364" fill="none" xmlns="http://www.w3.org/2000/svg"><path d="M237.996 340v-7.848h1.392V340h-1.392zm3.417 0v-5.892h1.14l.096.792h.048a4.77 4.77 0 01.852-.66 2.086 2.086 0 011.08-.276c.632 0 1.092.204 1.38.612.288.4.432.976.432 1.728V340h-1.38v-3.516c0-.488-.072-.832-.216-1.032-.144-.2-.38-.3-.708-.3-.256 0-.484.064-.684.192-.192.12-.412.3-.66.54V340h-1.38zm8.941.144c-.344 0-.636-.052-.876-.156a1.563 1.563 0 01-.576-.432 2.018 2.018 0 01-.324-.672 3.72 3.72 0 01-.096-.876V335.2h-.84v-1.032l.912-.06.168-1.608h1.152v1.608h1.5v1.092h-1.5v2.808c0 .688.276 1.032.828 1.032.104 0 .208-.012.312-.036.112-.024.212-.056.3-.096l.24 1.02c-.16.056-.344.104-.552.144-.2.048-.416.072-.648.072zm2.409-.144v-5.892h1.14l.096 1.044h.048c.208-.384.46-.676.756-.876.296-.208.6-.312.912-.312.28 0 .504.04.673.12l-.24 1.2a1.85 1.85 0 00-.612-.096c-.233 0-.477.092-.733.276-.256.176-.476.488-.66.936v3.6h-1.38zm5.739.144c-.52 0-.94-.156-1.26-.468-.32-.32-.48-.74-.48-1.26 0-.312.064-.588.192-.828.136-.248.344-.46.624-.636a4.264 4.264 0 011.08-.444c.44-.12.964-.212 1.572-.276a1.876 1.876 0 00-.072-.432.852.852 0 00-.18-.372.73.73 0 00-.324-.252 1.18 1.18 0 00-.504-.096c-.288 0-.572.056-.852.168-.272.112-.54.248-.804.408l-.504-.924a5.903 5.903 0 011.104-.54 3.751 3.751 0 011.32-.228c.736 0 1.284.22 1.644.66.368.432.552 1.06.552 1.884V340h-1.14l-.096-.648h-.048a4.253 4.253 0 01-.852.564c-.296.152-.62.228-.972.228zm.444-1.08c.24 0 .456-.056.648-.168.2-.112.412-.272.636-.48v-1.32c-.4.048-.736.112-1.008.192s-.492.172-.66.276a.921.921 0 00-.36.336.82.82 0 00-.108.408c0 .264.08.456.24.576.16.12.364.18.612.18zm6.529 1.08c-.744 0-1.336-.268-1.776-.804-.432-.544-.648-1.304-.648-2.28 0-.48.068-.912.204-1.296.144-.384.332-.708.564-.972.232-.264.496-.468.792-.612.304-.144.616-.216.936-.216.336 0 .62.06.852.18.232.112.464.268.696.468l-.048-.948v-2.136h1.38V340h-1.14l-.096-.636h-.048a3.12 3.12 0 01-.756.552 1.927 1.927 0 01-.912.228zm.336-1.14c.44 0 .852-.22 1.236-.66v-2.748a1.928 1.928 0 00-.612-.384 1.662 1.662 0 00-.588-.108c-.384 0-.708.168-.972.504-.264.336-.396.816-.396 1.44 0 .64.112 1.128.336 1.464.232.328.564.492.996.492zm5.952 1.14c-.52 0-.94-.156-1.26-.468-.32-.32-.48-.74-.48-1.26 0-.312.064-.588.192-.828.136-.248.344-.46.624-.636a4.264 4.264 0 011.08-.444c.44-.12.964-.212 1.572-.276a1.876 1.876 0 00-.072-.432.852.852 0 00-.18-.372.73.73 0 00-.324-.252 1.18 1.18 0 00-.504-.096c-.288 0-.572.056-.852.168-.272.112-.54.248-.804.408l-.504-.924a5.903 5.903 0 011.104-.54 3.751 3.751 0 011.32-.228c.736 0 1.284.22 1.644.66.368.432.552 1.06.552 1.884V340h-1.14l-.096-.648h-.048a4.253 4.253 0 01-.852.564c-.296.152-.62.228-.972.228zm.444-1.08c.24 0 .456-.056.648-.168.2-.112.412-.272.636-.48v-1.32c-.4.048-.736.112-1.008.192s-.492.172-.66.276a.921.921 0 00-.36.336.82.82 0 00-.108.408c0 .264.08.456.24.576.16.12.364.18.612.18zm4.861 3.36c-.16 0-.3-.012-.42-.036a1.7 1.7 0 01-.348-.084l.252-1.08c.056.016.12.032.192.048.08.024.156.036.228.036.312 0 .56-.096.744-.288.192-.184.336-.424.432-.72l.108-.372-2.316-5.82h1.404l1.02 2.892c.088.256.172.528.252.816l.264.84h.048c.072-.272.144-.548.216-.828l.228-.828.888-2.892h1.332l-2.136 6.156c-.12.336-.252.636-.396.9a2.736 2.736 0 01-.504.672c-.184.192-.4.336-.648.432-.24.104-.52.156-.84.156z" fill="#A0A0A0"/><path d="M260 322c33.137 0 60-26.863 60-60s-26.863-60-60-60-60 26.863-60 60 26.863 60 60 60z" fill="#262626"/><path d="M276.5 317.111v-40.5" stroke="#fff" stroke-width="1.375" stroke-miterlimit="10"/><path d="M288.123 236.786l-10.905 6.3-10.906-6.3 10.906-6.3 10.905 6.3z" fill="#FFAD29"/><path d="M277.217 243.087v34.725l10.905-6.315v-34.71l-10.905 6.3z" fill="#FFCD2C"/><path d="M266.312 236.787v34.725l10.906 6.3v-34.725l-10.906-6.3z" fill="#EA872D"/><path d="M276.498 236.111v-28.5M258.5 320.111v-43.5" stroke="#fff" stroke-width="1.375" stroke-miterlimit="10"/><path d="M270.003 233.786l-10.905 6.3-10.905-6.3 10.89-6.3 10.92 6.3z" fill="#2CAAFF"/><path d="M259.098 240.087v37.8l10.905-6.315v-37.785l-10.905 6.3z" fill="#57CCFF"/><path d="M248.193 233.787v37.8l10.905 6.3v-37.8l-10.905-6.3z" fill="#1777C6"/><path d="M258.498 233.111v-28.5M243.502 318.611v-19.5" stroke="#fff" stroke-width="1.375" stroke-miterlimit="10"/><path d="M253.685 252.402l-10.905 6.3-10.905-6.3 10.905-6.3 10.905 6.3z" fill="#FF2E83"/><path d="M242.779 258.7v42.195l10.905-6.3V252.4l-10.905 6.3z" fill="#FF61B0"/><path d="M231.875 252.4v42.195l10.905 6.3V258.7l-10.905-6.3z" fill="#CC2F6B"/><path d="M243.502 252.611v-46.5" stroke="#fff" stroke-width="1.375" stroke-miterlimit="10"/><path d="M434.612 340.144c-.528 0-1.04-.1-1.536-.3a4.01 4.01 0 01-1.296-.852l.816-.948c.28.264.6.48.96.648.36.16.72.24 1.08.24.448 0 .788-.092 1.02-.276a.888.888 0 00.348-.732.81.81 0 00-.096-.408.784.784 0 00-.252-.288 1.755 1.755 0 00-.384-.24 7.023 7.023 0 00-.48-.216l-1.08-.468a3.968 3.968 0 01-.576-.3 2.575 2.575 0 01-.504-.432 2.102 2.102 0 01-.372-.588 2.088 2.088 0 01-.132-.768c0-.312.064-.6.192-.864.136-.272.32-.508.552-.708.232-.2.508-.356.828-.468a3.285 3.285 0 011.068-.168c.456 0 .896.092 1.32.276a3.33 3.33 0 011.092.72l-.708.888a3.496 3.496 0 00-.792-.492 2.236 2.236 0 00-.912-.18c-.376 0-.676.084-.9.252a.779.779 0 00-.336.672c0 .152.032.284.096.396.072.104.164.2.276.288.12.08.256.156.408.228.152.064.308.128.468.192l1.068.444c.232.096.444.208.636.336.192.128.356.276.492.444.144.168.256.364.336.588.08.216.12.468.12.756 0 .32-.064.62-.192.9s-.316.528-.564.744c-.24.208-.536.376-.888.504a3.56 3.56 0 01-1.176.18zm4.277-.144v-8.472h1.38v2.184l-.048 1.14c.248-.232.52-.436.816-.612.304-.184.66-.276 1.068-.276.632 0 1.092.204 1.38.612.288.4.432.976.432 1.728V340h-1.38v-3.516c0-.488-.072-.832-.216-1.032-.144-.2-.38-.3-.708-.3-.256 0-.484.064-.684.192-.192.12-.412.3-.66.54V340h-1.38zm9.254.144c-.368 0-.72-.068-1.056-.204a2.69 2.69 0 01-.9-.6 2.92 2.92 0 01-.612-.972 3.531 3.531 0 01-.228-1.308c0-.488.076-.924.228-1.308a2.92 2.92 0 01.612-.972 2.69 2.69 0 01.9-.6 2.653 2.653 0 011.056-.216c.368 0 .72.072 1.056.216.344.136.644.336.9.6.256.264.46.588.612.972.16.384.24.82.24 1.308 0 .488-.08.924-.24 1.308a2.92 2.92 0 01-.612.972 2.54 2.54 0 01-.9.6 2.788 2.788 0 01-1.056.204zm0-1.128c.432 0 .772-.176 1.02-.528.248-.36.372-.836.372-1.428 0-.6-.124-1.076-.372-1.428a1.174 1.174 0 00-1.02-.54c-.432 0-.772.18-1.02.54-.24.352-.36.828-.36 1.428 0 .592.12 1.068.36 1.428.248.352.588.528 1.02.528zm4.324.984v-5.892h1.14l.096 1.044h.048c.208-.384.46-.676.756-.876.296-.208.6-.312.912-.312.28 0 .504.04.672.12l-.24 1.2a1.85 1.85 0 00-.612-.096c-.232 0-.476.092-.732.276-.256.176-.476.488-.66.936v3.6h-1.38zm6.702.144c-.344 0-.636-.052-.876-.156a1.563 1.563 0 01-.576-.432 2.018 2.018 0 01-.324-.672 3.72 3.72 0 01-.096-.876V335.2h-.84v-1.032l.912-.06.168-1.608h1.152v1.608h1.5v1.092h-1.5v2.808c0 .688.276 1.032.828 1.032.104 0 .208-.012.312-.036.112-.024.212-.056.3-.096l.24 1.02c-.16.056-.344.104-.552.144-.2.048-.416.072-.648.072zm7.038 0c-.344 0-.636-.052-.876-.156a1.563 1.563 0 01-.576-.432 2.018 2.018 0 01-.324-.672 3.72 3.72 0 01-.096-.876V335.2h-.84v-1.032l.912-.06.168-1.608h1.152v1.608h1.5v1.092h-1.5v2.808c0 .688.276 1.032.828 1.032.104 0 .208-.012.312-.036.112-.024.212-.056.3-.096l.24 1.02c-.16.056-.344.104-.552.144-.2.048-.416.072-.648.072zm4.743 0c-.408 0-.788-.068-1.14-.204a2.782 2.782 0 01-.924-.612 2.848 2.848 0 01-.624-.96 3.707 3.707 0 01-.216-1.308c0-.48.076-.912.228-1.296.152-.384.352-.708.6-.972.256-.264.548-.468.876-.612a2.484 2.484 0 011.008-.216c.4 0 .752.068 1.056.204.304.136.556.328.756.576.208.248.364.544.468.888a3.884 3.884 0 01.132 1.512c-.008.12-.02.216-.036.288h-3.744c.064.528.248.936.552 1.224.312.28.708.42 1.188.42.256 0 .492-.036.708-.108.224-.08.444-.188.66-.324l.468.864c-.28.184-.592.336-.936.456-.344.12-.704.18-1.08.18zm-1.572-3.648h2.616c0-.456-.1-.812-.3-1.068-.192-.264-.492-.396-.9-.396-.352 0-.66.124-.924.372s-.428.612-.492 1.092zm5.284 3.504v-5.892h1.14l.096 1.044h.048c.208-.384.46-.676.756-.876.296-.208.6-.312.912-.312.28 0 .504.04.672.12l-.24 1.2a1.85 1.85 0 00-.612-.096c-.232 0-.476.092-.732.276-.256.176-.476.488-.66.936v3.6h-1.38zm4.626 0v-5.892h1.14l.096.804h.048a4.22 4.22 0 01.804-.672c.296-.184.628-.276.996-.276.432 0 .776.092 1.032.276.264.184.464.444.6.78a4.74 4.74 0 01.876-.756c.304-.2.644-.3 1.02-.3.624 0 1.084.204 1.38.612.296.4.444.976.444 1.728V340h-1.392v-3.516c0-.488-.076-.832-.228-1.032-.144-.2-.368-.3-.672-.3-.368 0-.78.244-1.236.732V340h-1.38v-3.516c0-.488-.076-.832-.228-1.032-.144-.2-.372-.3-.684-.3-.368 0-.78.244-1.236.732V340h-1.38zm-48.249 19v-5.892h1.38V359h-1.38zm.696-6.924a.88.88 0 01-.612-.216.723.723 0 01-.24-.564c0-.232.08-.42.24-.564a.853.853 0 01.612-.228c.248 0 .452.076.612.228.16.144.24.332.24.564 0 .232-.08.42-.24.564a.88.88 0 01-.612.216zM434.33 359v-5.892h1.14l.096.792h.048a4.77 4.77 0 01.852-.66 2.086 2.086 0 011.08-.276c.632 0 1.092.204 1.38.612.288.4.432.976.432 1.728V359h-1.38v-3.516c0-.488-.072-.832-.216-1.032-.144-.2-.38-.3-.708-.3-.256 0-.484.064-.684.192-.192.12-.412.3-.66.54V359h-1.38zm8.184 0l-2.052-5.892h1.404l.936 3.06c.08.288.16.58.24.876.088.296.172.596.252.9h.048c.088-.304.172-.604.252-.9.08-.296.164-.588.252-.876l.936-3.06h1.332L444.11 359h-1.596zm7.221.144c-.408 0-.788-.068-1.14-.204a2.782 2.782 0 01-.924-.612 2.848 2.848 0 01-.624-.96 3.707 3.707 0 01-.216-1.308c0-.48.076-.912.228-1.296.152-.384.352-.708.6-.972.256-.264.548-.468.876-.612a2.484 2.484 0 011.008-.216c.4 0 .752.068 1.056.204.304.136.556.328.756.576.208.248.364.544.468.888a3.884 3.884 0 01.132 1.512c-.008.12-.02.216-.036.288h-3.744c.064.528.248.936.552 1.224.312.28.708.42 1.188.42.256 0 .492-.036.708-.108.224-.08.444-.188.66-.324l.468.864c-.28.184-.592.336-.936.456-.344.12-.704.18-1.08.18zm-1.572-3.648h2.616c0-.456-.1-.812-.3-1.068-.192-.264-.492-.396-.9-.396-.352 0-.66.124-.924.372s-.428.612-.492 1.092zm6.928 3.648c-.408 0-.812-.076-1.212-.228a4.058 4.058 0 01-1.02-.588l.648-.888c.264.208.524.372.78.492.264.112.548.168.852.168.32 0 .556-.064.708-.192a.662.662 0 00.228-.516.477.477 0 00-.108-.312.99.99 0 00-.288-.252 2.414 2.414 0 00-.408-.192l-.456-.192a7.215 7.215 0 01-.588-.252c-.2-.096-.38-.212-.54-.348a1.967 1.967 0 01-.384-.468 1.382 1.382 0 01-.144-.648c0-.52.192-.944.576-1.272.384-.328.908-.492 1.572-.492.408 0 .776.072 1.104.216.328.144.612.308.852.492l-.636.84a2.995 2.995 0 00-.636-.36 1.556 1.556 0 00-.66-.144c-.296 0-.516.064-.66.192a.582.582 0 00-.204.456c0 .12.032.224.096.312.072.08.164.152.276.216.112.064.24.124.384.18.152.056.308.112.468.168.2.072.4.156.6.252.2.088.38.2.54.336.168.136.3.304.396.504.104.192.156.424.156.696 0 .256-.052.496-.156.72-.096.216-.24.408-.432.576-.192.16-.432.288-.72.384a3.106 3.106 0 01-.984.144zm5.516 0c-.344 0-.636-.052-.876-.156a1.563 1.563 0 01-.576-.432 2.018 2.018 0 01-.324-.672 3.72 3.72 0 01-.096-.876V354.2h-.84v-1.032l.912-.06.168-1.608h1.152v1.608h1.5v1.092h-1.5v2.808c0 .688.276 1.032.828 1.032.104 0 .208-.012.312-.036.112-.024.212-.056.3-.096l.24 1.02c-.16.056-.344.104-.552.144-.2.048-.416.072-.648.072zm2.41-.144v-5.892h1.14l.096.804h.048a4.22 4.22 0 01.804-.672c.296-.184.628-.276.996-.276.432 0 .776.092 1.032.276.264.184.464.444.6.78a4.74 4.74 0 01.876-.756c.304-.2.644-.3 1.02-.3.624 0 1.084.204 1.38.612.296.4.444.976.444 1.728V359h-1.392v-3.516c0-.488-.076-.832-.228-1.032-.144-.2-.368-.3-.672-.3-.368 0-.78.244-1.236.732V359h-1.38v-3.516c0-.488-.076-.832-.228-1.032-.144-.2-.372-.3-.684-.3-.368 0-.78.244-1.236.732V359h-1.38zm12.783.144c-.408 0-.788-.068-1.14-.204a2.782 2.782 0 01-.924-.612 2.848 2.848 0 01-.624-.96 3.707 3.707 0 01-.216-1.308c0-.48.076-.912.228-1.296.152-.384.352-.708.6-.972.256-.264.548-.468.876-.612a2.484 2.484 0 011.008-.216c.4 0 .752.068 1.056.204.304.136.556.328.756.576.208.248.364.544.468.888a3.884 3.884 0 01.132 1.512c-.008.12-.02.216-.036.288h-3.744c.064.528.248.936.552 1.224.312.28.708.42 1.188.42.256 0 .492-.036.708-.108.224-.08.444-.188.66-.324l.468.864c-.28.184-.592.336-.936.456-.344.12-.704.18-1.08.18zm-1.572-3.648h2.616c0-.456-.1-.812-.3-1.068-.192-.264-.492-.396-.9-.396-.352 0-.66.124-.924.372s-.428.612-.492 1.092zm5.284 3.504v-5.892h1.14l.096.792h.048a4.77 4.77 0 01.852-.66 2.086 2.086 0 011.08-.276c.632 0 1.092.204 1.38.612.288.4.432.976.432 1.728V359h-1.38v-3.516c0-.488-.072-.832-.216-1.032-.144-.2-.38-.3-.708-.3-.256 0-.484.064-.684.192-.192.12-.412.3-.66.54V359h-1.38zm8.941.144c-.344 0-.636-.052-.876-.156a1.563 1.563 0 01-.576-.432 2.018 2.018 0 01-.324-.672 3.72 3.72 0 01-.096-.876V354.2h-.84v-1.032l.912-.06.168-1.608h1.152v1.608h1.5v1.092h-1.5v2.808c0 .688.276 1.032.828 1.032.104 0 .208-.012.312-.036.112-.024.212-.056.3-.096l.24 1.02c-.16.056-.344.104-.552.144-.2.048-.416.072-.648.072z" fill="#A0A0A0"/><path d="M460 322c33.137 0 60-26.863 60-60s-26.863-60-60-60-60 26.863-60 60 26.863 60 60 60z" fill="#262626"/><path d="M462.895 303.28a13.603 13.603 0 01-3.63-.45 14.779 14.779 0 01-1.32-.405c-1.605-.57-3.18-1.44-4.71-2.61-2.61-2.01-5.07-4.875-7.2-8.61-9.195-16.125-9.06-42.285.3-58.425 1.755-3.03 3.705-5.49 5.79-7.38l.015-.015c1.68-1.53 3.435-2.685 5.235-3.465a15.21 15.21 0 011.74-.645c1.32-.405 2.64-.6 3.975-.615l-4.665.045-1.305.015h-.135c-1.83.03-3.675.435-5.475 1.215-4.08 1.755-7.95 5.385-11.145 10.905-9.36 16.155-9.495 42.315-.3 58.425 2.85 4.995 6.27 8.445 9.9 10.335 1.965 1.02 3.99 1.59 6.015 1.71.315.015.63.03.93.03l.915-.015 5.07-.045z" fill="#CC2F6B"/><path d="M446.034 291.205c-9.195-16.125-9.06-42.285.3-58.425 9.36-16.14 24.405-16.17 33.615-.045 9.195 16.125 9.06 42.285-.3 58.425-9.375 16.155-24.42 16.17-33.615.045z" fill="#FF2E83"/><path d="M452.664 284.996c-7.305-12.81-7.2-33.6.24-46.44 7.44-12.825 16.74-12.855 24.045-.03 7.305 12.81 7.2 33.6-.24 46.44-7.44 12.825-16.74 12.855-24.045.03z" fill="#FFCD2C"/><path d="M467.437 229.301c3.765 1.14 6.765 4.425 9.51 9.225 7.305 12.81 7.2 33.6-.24 46.44-3.72 6.42-8.22 10.14-13.41 9.63 0 0 12.105-7.605 14.265-30.705 2.175-23.085-10.125-34.59-10.125-34.59z" fill="#EA872D"/><path d="M472.99 276.265l-9.855-7.56v-27.42h1.065v26.895l9.435 7.245-.645.84z" fill="#1777C6"/><path d="M459.695 246.504l7.38-3.255-4.02-4.71-3.36 7.965zM468.49 276.281l3.12-5.64 2.52 5.895-5.64-.255z" fill="#2CAAFF"/><path d="M35.007 138v-7.848h1.392v6.672h3.264V138h-4.656zm8.313.144c-.368 0-.72-.068-1.056-.204a2.69 2.69 0 01-.9-.6 2.92 2.92 0 01-.612-.972 3.531 3.531 0 01-.228-1.308c0-.488.076-.924.228-1.308a2.92 2.92 0 01.612-.972 2.69 2.69 0 01.9-.6 2.653 2.653 0 011.056-.216c.368 0 .72.072 1.056.216.344.136.644.336.9.6.256.264.46.588.612.972.16.384.24.82.24 1.308 0 .488-.08.924-.24 1.308a2.92 2.92 0 01-.612.972 2.54 2.54 0 01-.9.6 2.788 2.788 0 01-1.056.204zm0-1.128c.432 0 .772-.176 1.02-.528.248-.36.372-.836.372-1.428 0-.6-.124-1.076-.372-1.428a1.174 1.174 0 00-1.02-.54c-.432 0-.772.18-1.02.54-.24.352-.36.828-.36 1.428 0 .592.12 1.068.36 1.428.248.352.588.528 1.02.528zm4.324.984v-5.892h1.14l.096.792h.048a4.77 4.77 0 01.852-.66 2.086 2.086 0 011.08-.276c.632 0 1.092.204 1.38.612.288.4.432.976.432 1.728V138h-1.38v-3.516c0-.488-.072-.832-.216-1.032-.144-.2-.38-.3-.708-.3-.256 0-.484.064-.684.192-.192.12-.412.3-.66.54V138h-1.38zm8.916 2.604c-.352 0-.68-.032-.984-.096a2.559 2.559 0 01-.768-.288 1.57 1.57 0 01-.516-.48 1.241 1.241 0 01-.18-.672c0-.248.072-.48.216-.696.144-.208.352-.396.624-.564v-.048a1.256 1.256 0 01-.384-.384 1.149 1.149 0 01-.144-.6c0-.232.064-.44.192-.624.136-.192.288-.348.456-.468v-.048c-.2-.152-.38-.36-.54-.624a1.886 1.886 0 01-.228-.936 1.986 1.986 0 01.696-1.56 2.11 2.11 0 01.744-.408c.28-.096.576-.144.888-.144.16 0 .312.016.456.048.152.024.288.056.408.096h2.112v1.02h-1.08c.096.112.176.256.24.432.064.168.096.356.096.564 0 .328-.06.616-.18.864a1.735 1.735 0 01-.468.624c-.2.168-.436.296-.708.384a2.83 2.83 0 01-.876.132c-.128 0-.26-.012-.396-.036a1.97 1.97 0 01-.408-.12c-.088.08-.16.16-.216.24a.627.627 0 00-.072.324c0 .168.068.3.204.396.144.096.396.144.756.144h1.044c.712 0 1.248.116 1.608.348.368.224.552.592.552 1.104 0 .288-.076.56-.228.816a1.955 1.955 0 01-.624.66 3.256 3.256 0 01-.996.432 4.626 4.626 0 01-1.296.168zm.072-5.34c.28 0 .52-.1.72-.3.2-.208.3-.504.3-.888 0-.368-.1-.652-.3-.852a.94.94 0 00-.72-.312c-.288 0-.532.1-.732.3-.2.2-.3.488-.3.864 0 .384.1.68.3.888.2.2.444.3.732.3zm.144 4.44c.48 0 .864-.096 1.152-.288.296-.184.444-.404.444-.66 0-.232-.092-.388-.276-.468-.176-.08-.432-.12-.768-.12h-.804c-.32 0-.588-.028-.804-.084-.304.232-.456.492-.456.78 0 .264.132.468.396.612.272.152.644.228 1.116.228zm8.745-1.56c-.344 0-.636-.052-.876-.156a1.563 1.563 0 01-.576-.432 2.018 2.018 0 01-.324-.672 3.72 3.72 0 01-.096-.876V133.2h-.84v-1.032l.912-.06.168-1.608h1.152v1.608h1.5v1.092h-1.5v2.808c0 .688.276 1.032.828 1.032.104 0 .208-.012.312-.036.112-.024.212-.056.3-.096l.24 1.02c-.16.056-.344.104-.552.144-.2.048-.416.072-.648.072zm4.743 0c-.408 0-.788-.068-1.14-.204a2.782 2.782 0 01-.924-.612 2.848 2.848 0 01-.624-.96 3.707 3.707 0 01-.216-1.308c0-.48.076-.912.228-1.296.152-.384.352-.708.6-.972.256-.264.548-.468.876-.612a2.484 2.484 0 011.008-.216c.4 0 .752.068 1.056.204.304.136.556.328.756.576.208.248.364.544.468.888a3.884 3.884 0 01.132 1.512c-.008.12-.02.216-.036.288h-3.744c.064.528.248.936.552 1.224.312.28.708.42 1.188.42.256 0 .492-.036.708-.108.224-.08.444-.188.66-.324l.468.864c-.28.184-.592.336-.936.456-.344.12-.704.18-1.08.18zm-1.572-3.648h2.616c0-.456-.1-.812-.3-1.068-.192-.264-.492-.396-.9-.396-.352 0-.66.124-.924.372s-.428.612-.492 1.092zM73.976 138v-5.892h1.14l.096 1.044h.048c.208-.384.46-.676.756-.876.296-.208.6-.312.912-.312.28 0 .504.04.672.12l-.24 1.2a1.85 1.85 0 00-.612-.096c-.232 0-.476.092-.732.276-.256.176-.476.488-.66.936v3.6h-1.38zm4.626 0v-5.892h1.14l.096.804h.048a4.22 4.22 0 01.804-.672c.296-.184.628-.276.996-.276.432 0 .776.092 1.032.276.264.184.464.444.6.78a4.74 4.74 0 01.876-.756c.304-.2.644-.3 1.02-.3.624 0 1.084.204 1.38.612.296.4.444.976.444 1.728V138h-1.392v-3.516c0-.488-.076-.832-.228-1.032-.144-.2-.368-.3-.672-.3-.368 0-.78.244-1.236.732V138h-1.38v-3.516c0-.488-.076-.832-.228-1.032-.144-.2-.372-.3-.684-.3-.368 0-.78.244-1.236.732V138h-1.38zM32.04 157v-5.892h1.38V157h-1.38zm.696-6.924a.88.88 0 01-.612-.216.723.723 0 01-.24-.564c0-.232.08-.42.24-.564a.853.853 0 01.612-.228c.248 0 .452.076.612.228.16.144.24.332.24.564 0 .232-.08.42-.24.564a.88.88 0 01-.612.216zM35.33 157v-5.892h1.14l.096.792h.047a4.77 4.77 0 01.852-.66 2.086 2.086 0 011.08-.276c.633 0 1.093.204 1.38.612.289.4.433.976.433 1.728V157h-1.38v-3.516c0-.488-.072-.832-.217-1.032-.144-.2-.38-.3-.708-.3-.255 0-.483.064-.683.192-.192.12-.412.3-.66.54V157h-1.38zm8.184 0l-2.052-5.892h1.404l.936 3.06c.08.288.16.58.24.876.088.296.172.596.252.9h.048c.088-.304.172-.604.252-.9.08-.296.164-.588.252-.876l.936-3.06h1.332L45.11 157h-1.596zm7.221.144c-.407 0-.788-.068-1.14-.204a2.782 2.782 0 01-.923-.612 2.848 2.848 0 01-.624-.96 3.707 3.707 0 01-.217-1.308c0-.48.076-.912.228-1.296.153-.384.352-.708.6-.972.257-.264.549-.468.877-.612a2.484 2.484 0 011.008-.216c.4 0 .752.068 1.056.204.303.136.556.328.755.576.209.248.364.544.469.888a3.884 3.884 0 01.132 1.512c-.009.12-.02.216-.037.288h-3.743c.063.528.247.936.551 1.224.313.28.709.42 1.189.42.256 0 .492-.036.708-.108.223-.08.444-.188.66-.324l.468.864c-.28.184-.593.336-.937.456-.343.12-.703.18-1.08.18zm-1.572-3.648h2.617c0-.456-.1-.812-.3-1.068-.192-.264-.492-.396-.9-.396-.352 0-.66.124-.924.372s-.428.612-.492 1.092zm6.929 3.648c-.408 0-.813-.076-1.212-.228a4.058 4.058 0 01-1.02-.588l.648-.888c.264.208.523.372.78.492.264.112.548.168.852.168.32 0 .556-.064.707-.192a.662.662 0 00.228-.516.477.477 0 00-.108-.312.99.99 0 00-.288-.252 2.414 2.414 0 00-.407-.192l-.456-.192a7.215 7.215 0 01-.589-.252c-.2-.096-.38-.212-.54-.348a1.967 1.967 0 01-.383-.468 1.382 1.382 0 01-.145-.648c0-.52.193-.944.577-1.272.384-.328.908-.492 1.572-.492.407 0 .776.072 1.103.216.328.144.612.308.852.492l-.636.84a2.995 2.995 0 00-.636-.36 1.556 1.556 0 00-.66-.144c-.296 0-.516.064-.66.192a.582.582 0 00-.203.456c0 .12.031.224.095.312.072.08.164.152.276.216.113.064.24.124.385.18.152.056.308.112.468.168.2.072.4.156.6.252.2.088.38.2.54.336.167.136.3.304.395.504.105.192.157.424.157.696 0 .256-.053.496-.157.72-.095.216-.24.408-.431.576-.193.16-.432.288-.72.384a3.106 3.106 0 01-.984.144zm5.515 0c-.344 0-.636-.052-.876-.156a1.563 1.563 0 01-.576-.432 2.018 2.018 0 01-.324-.672 3.72 3.72 0 01-.096-.876V152.2h-.84v-1.032l.912-.06.168-1.608h1.152v1.608h1.5v1.092h-1.5v2.808c0 .688.276 1.032.828 1.032.104 0 .208-.012.312-.036.112-.024.212-.056.3-.096l.24 1.02c-.16.056-.344.104-.552.144-.2.048-.416.072-.648.072zm2.41-.144v-5.892h1.14l.096.804h.048a4.22 4.22 0 01.804-.672c.296-.184.628-.276.996-.276.432 0 .776.092 1.032.276.264.184.464.444.6.78a4.74 4.74 0 01.876-.756c.304-.2.644-.3 1.02-.3.624 0 1.084.204 1.38.612.296.4.444.976.444 1.728V157h-1.392v-3.516c0-.488-.076-.832-.228-1.032-.144-.2-.368-.3-.672-.3-.368 0-.78.244-1.236.732V157h-1.38v-3.516c0-.488-.076-.832-.228-1.032-.144-.2-.372-.3-.684-.3-.368 0-.78.244-1.236.732V157h-1.38zm12.783.144c-.408 0-.788-.068-1.14-.204a2.782 2.782 0 01-.924-.612 2.848 2.848 0 01-.624-.96 3.707 3.707 0 01-.216-1.308c0-.48.076-.912.228-1.296.152-.384.352-.708.6-.972.256-.264.548-.468.876-.612a2.484 2.484 0 011.008-.216c.4 0 .752.068 1.056.204.304.136.556.328.756.576.208.248.364.544.468.888a3.884 3.884 0 01.132 1.512c-.008.12-.02.216-.036.288H75.24c.064.528.248.936.552 1.224.312.28.708.42 1.188.42.256 0 .492-.036.708-.108.224-.08.444-.188.66-.324l.468.864c-.28.184-.592.336-.936.456-.344.12-.704.18-1.08.18zm-1.572-3.648h2.616c0-.456-.1-.812-.3-1.068-.192-.264-.492-.396-.9-.396-.352 0-.66.124-.924.372s-.428.612-.492 1.092zM80.512 157v-5.892h1.14l.096.792h.048a4.77 4.77 0 01.852-.66 2.086 2.086 0 011.08-.276c.632 0 1.092.204 1.38.612.288.4.432.976.432 1.728V157h-1.38v-3.516c0-.488-.072-.832-.216-1.032-.144-.2-.38-.3-.708-.3-.256 0-.484.064-.684.192-.192.12-.412.3-.66.54V157h-1.38zm8.941.144c-.344 0-.636-.052-.876-.156a1.563 1.563 0 01-.576-.432 2.018 2.018 0 01-.324-.672 3.72 3.72 0 01-.096-.876V152.2h-.84v-1.032l.912-.06.168-1.608h1.152v1.608h1.5v1.092h-1.5v2.808c0 .688.276 1.032.828 1.032.104 0 .208-.012.312-.036.112-.024.212-.056.3-.096l.24 1.02c-.16.056-.344.104-.552.144-.2.048-.416.072-.648.072z" fill="#A0A0A0"/><path d="M60 120c33.137 0 60-26.863 60-60S93.137 0 60 0 0 26.863 0 60s26.863 60 60 60z" fill="#262626"/><path d="M69.662 107.941c1.47-.555 2.55-1.83 2.91-3.375l5.13-14.28a.87.87 0 00-.825-1.155H44.012c-.6 0-1.02.585-.825 1.14l4.8 14.22a4.714 4.714 0 002.925 3.435 26.488 26.488 0 009.6 1.725c3.765 0 6.9-.84 9.15-1.71z" fill="#CC2F6B"/><path d="M81.42 95.761c0 3.645-9.45 6.615-21.09 6.615s-21.09-2.955-21.09-6.615v-6.614h42.195v6.614h-.015z" fill="#FF2E83"/><path d="M60.33 95.761c11.648 0 21.09-2.961 21.09-6.615 0-3.653-9.442-6.615-21.09-6.615-11.647 0-21.09 2.962-21.09 6.615 0 3.654 9.443 6.615 21.09 6.615z" fill="#FF61B0"/><path d="M60.331 94.247c9.95 0 18.015-2.284 18.015-5.1 0-2.817-8.065-5.1-18.015-5.1-9.949 0-18.015 2.283-18.015 5.1 0 2.816 8.066 5.1 18.015 5.1z" fill="#E5AC77"/><path d="M78.346 89.147c0-2.82-8.07-5.1-18.015-5.1s-18.015 2.28-18.015 5.1v1.65c3.54-1.875 9.84-4.575 17.985-4.59 8.175 0 14.505 2.7 18.045 4.59v-1.65z" fill="#CC2F6B"/><path d="M60.593 90.648c1.605-3.12.495-6.84-1.26-9.675-1.904-3.075-4.77-5.13-8.084-6.48-3.72-1.515-7.74-2.13-11.386-3.84-3.584-1.68-6.914-4.785-6.75-9.03.045-1.2-1.83-1.2-1.875 0-.3 7.815 7.83 11.085 14.04 12.885 3.586 1.05 7.395 2.085 10.2 4.695 2.535 2.37 5.28 7.005 3.495 10.485-.554 1.08 1.066 2.025 1.62.96z" fill="#1777C6"/><path d="M61.859 88.922c5.655-7.86.96-18.45-1.605-26.475-2.82-8.82-7.515-22.74 1.725-29.475.96-.705.03-2.325-.945-1.62-8.52 6.21-6.57 17.535-4.155 26.31 1.44 5.25 3.57 10.305 4.845 15.6 1.14 4.755 1.5 10.545-1.485 14.715-.705.975.915 1.92 1.62.945z" fill="#1777C6"/><path d="M60.033 91.066c5.43-1.035 10.08-5.145 13.155-9.585 2.895-4.185 6.405-11.835 12.81-10.2 1.17.3 1.665-1.515.495-1.815-5.865-1.5-10.155 3.57-12.93 7.965-3.3 5.235-7.56 10.59-14.01 11.805-1.215.255-.705 2.055.48 1.83z" fill="#1777C6"/><path d="M37.637 70.515s-6.15-1.275-9.375.87c-3.225 2.16-7.455 1.455-7.455 1.455s6.585 3.915 10.68 3.045c4.095-.87 6.15-5.37 6.15-5.37zM51.857 76.275s-6.15-1.275-9.375.87c-3.225 2.145-7.455 1.455-7.455 1.455s6.585 3.915 10.68 3.045c4.095-.87 6.15-5.37 6.15-5.37zM55.626 45.765s-2.205-5.88-5.745-7.455c-3.54-1.575-5.205-5.535-5.205-5.535s.21 7.65 3.12 10.65 7.83 2.34 7.83 2.34zM59.684 66.031s-2.205-5.88-5.745-7.455c-3.54-1.575-5.205-5.535-5.205-5.535s.21 7.65 3.12 10.65c2.94 3 7.83 2.34 7.83 2.34zM69.136 84.046s2.655-5.7 1.305-9.315c-1.365-3.63.3-7.59.3-7.59s-5.325 5.505-5.415 9.69c-.105 4.17 3.81 7.215 3.81 7.215zM55.951 49.29s4.17-4.71 8.04-4.904c3.87-.195 6.84-3.3 6.84-3.3s-2.94 7.065-6.735 8.82c-3.795 1.755-8.145-.615-8.145-.615zM61.71 69.45s1.62-6.075 4.996-7.98c3.375-1.905 4.65-6.015 4.65-6.015s.54 7.635-2.085 10.905c-2.61 3.27-7.56 3.09-7.56 3.09zM74.387 79.171s6.165-1.245 9.36.915c3.195 2.16 7.455 1.486 7.455 1.486s-6.6 3.884-10.695 2.984c-4.08-.87-6.12-5.385-6.12-5.385zM46.128 73.785s-2.895-5.58-1.695-9.255c1.2-3.675-.63-7.575-.63-7.575s5.55 5.28 5.82 9.45c.285 4.185-3.495 7.38-3.495 7.38z" fill="#57CCFF"/><path d="M81.42 68.296c.255.33.54.615.87.87.12.09.24.18.375.27.48.3 1.035.54 1.665.705 1.065.285 2.34.33 3.765.12 6.165-.9 13.05-6.33 15.39-12.135.435-1.095.69-2.115.765-3.045.06-.765 0-1.47-.165-2.1a3.345 3.345 0 00-.195-.585 4.807 4.807 0 00-.66-1.185l.945 1.245.27.345c.015.015.015.03.03.03.375.495.645 1.065.81 1.695.375 1.44.21 3.21-.585 5.205-2.34 5.805-9.225 11.235-15.39 12.135-1.905.27-3.525.09-4.77-.48a4.745 4.745 0 01-1.695-1.245c-.075-.075-.135-.165-.195-.24l-.195-.24-1.035-1.365z" fill="#EA872D"/><path d="M88.097 70.276c6.165-.9 13.05-6.33 15.39-12.135s-.765-9.795-6.915-8.895c-6.165.9-13.05 6.33-15.39 12.135-2.34 5.79.75 9.78 6.915 8.895z" fill="#FFCD2C"/><path d="M88.92 67.937c4.89-.705 10.38-5.025 12.241-9.645 1.86-4.62-.6-7.785-5.505-7.065-4.89.705-10.38 5.025-12.24 9.645-1.86 4.605.615 7.77 5.505 7.065z" fill="#FFAD29"/><path d="M100.038 51.93c-1.05-.69-2.55-.974-4.38-.704-4.89.705-10.38 5.025-12.24 9.645-.93 2.31-.78 4.26.21 5.535 0 0-.48-4.77 5.175-10.11 5.67-5.34 11.235-4.365 11.235-4.365zM41.718 62.116a4.68 4.68 0 01-1.11 1.26c-.45.36-.974.66-1.575.885-1.035.39-2.28.6-3.72.54-6.225-.195-13.68-4.83-16.65-10.335-.555-1.035-.915-2.025-1.095-2.955-.135-.75-.165-1.455-.075-2.1.03-.21.076-.405.12-.615.12-.45.285-.855.526-1.245l-.81 1.335-.226.375c0 .015-.015.03-.015.03a4.692 4.692 0 00-.614 1.77c-.21 1.47.15 3.21 1.17 5.1 2.97 5.505 10.425 10.14 16.65 10.335 1.934.06 3.51-.315 4.695-1.02a4.868 4.868 0 001.544-1.425c.06-.09.12-.18.166-.27l.165-.27.855-1.395z" fill="#EA872D"/><path d="M35.297 64.816c-6.225-.195-13.68-4.83-16.65-10.335-2.97-5.505-.345-9.81 5.88-9.615 6.224.195 13.68 4.83 16.65 10.335 2.984 5.505.345 9.81-5.88 9.615z" fill="#FFCD2C"/><path d="M34.234 62.596c-4.95-.165-10.875-3.84-13.23-8.22-2.37-4.38-.27-7.8 4.68-7.65 4.95.165 10.875 3.84 13.23 8.22 2.355 4.38.255 7.8-4.68 7.65z" fill="#FFAD29"/><path d="M21.395 47.926c.974-.81 2.415-1.26 4.274-1.2 4.95.165 10.875 3.84 13.23 8.22 1.185 2.19 1.245 4.14.405 5.52 0 0-.044-4.8-6.27-9.465-6.224-4.665-11.64-3.075-11.64-3.075zM53.83 33.135c.315.27.645.495 1.02.675.135.06.285.12.42.18.54.195 1.125.315 1.77.345 1.11.06 2.355-.15 3.705-.645 5.85-2.145 11.475-8.88 12.57-15.045.21-1.155.24-2.205.12-3.15a6.935 6.935 0 00-.585-2.025 4.598 4.598 0 00-.3-.54c-.24-.39-.54-.72-.885-1.02l1.185 1.02.33.285.03.03c.465.405.84.915 1.14 1.5.66 1.335.87 3.105.495 5.205-1.095 6.165-6.72 12.9-12.57 15.045-1.815.66-3.435.81-4.77.51a4.986 4.986 0 01-1.92-.87c-.075-.06-.15-.135-.24-.195l-.24-.195-1.275-1.11z" fill="#EA872D"/><path d="M60.769 33.69c5.85-2.144 11.474-8.88 12.57-15.044 1.094-6.165-2.76-9.42-8.61-7.29-5.85 2.145-11.475 8.88-12.57 15.045-1.096 6.165 2.76 9.42 8.61 7.29z" fill="#FFCD2C"/><path d="M61.087 31.232c4.65-1.695 9.12-7.05 9.99-11.955.87-4.905-2.19-7.485-6.84-5.79-4.65 1.695-9.12 7.05-9.99 11.955-.87 4.905 2.205 7.5 6.84 5.79z" fill="#FFAD29"/><path d="M68.677 13.276c-1.17-.465-2.686-.42-4.44.21-4.65 1.695-9.12 7.05-9.99 11.955-.435 2.445.12 4.32 1.35 5.37 0 0-1.456-4.575 2.984-10.95 4.455-6.39 10.096-6.585 10.096-6.585z" fill="#EA872D"/><path d="M43.996 340v-7.848h4.728v1.176h-3.336v2.004h2.82v1.176h-2.82v2.316h3.456V340h-4.848zm10.006 2.328v-1.932l.048-.984a3.125 3.125 0 01-.744.528c-.28.136-.572.204-.876.204-.744 0-1.336-.268-1.776-.804-.432-.544-.648-1.304-.648-2.28 0-.48.068-.912.204-1.296.144-.384.332-.708.564-.972.232-.264.496-.468.792-.612.304-.144.616-.216.936-.216.336 0 .628.06.876.18.256.112.508.288.756.528h.036l.12-.564h1.092v8.22h-1.38zm-1.236-3.324c.44 0 .852-.22 1.236-.66v-2.748a1.928 1.928 0 00-.612-.384 1.662 1.662 0 00-.588-.108c-.384 0-.708.168-.972.504-.264.336-.396.816-.396 1.44 0 .64.112 1.128.336 1.464.232.328.564.492.996.492zm6.275 1.14c-.632 0-1.092-.2-1.38-.6-.288-.408-.432-.988-.432-1.74v-3.696h1.38v3.516c0 .488.072.832.216 1.032.144.2.376.3.696.3.256 0 .48-.064.672-.192.2-.128.412-.336.636-.624v-4.032h1.38V340h-1.128l-.108-.864h-.036a3.412 3.412 0 01-.84.732c-.296.184-.648.276-1.056.276zm5.066-.144v-5.892h1.38V340h-1.38zm.696-6.924a.88.88 0 01-.612-.216.723.723 0 01-.24-.564c0-.232.08-.42.24-.564a.853.853 0 01.612-.228c.248 0 .452.076.612.228.16.144.24.332.24.564 0 .232-.08.42-.24.564a.88.88 0 01-.612.216zm4.67 7.068c-.343 0-.635-.052-.875-.156a1.563 1.563 0 01-.576-.432 2.018 2.018 0 01-.324-.672 3.72 3.72 0 01-.096-.876V335.2h-.84v-1.032l.912-.06.168-1.608h1.152v1.608h1.5v1.092h-1.5v2.808c0 .688.276 1.032.828 1.032.104 0 .208-.012.312-.036.112-.024.212-.056.3-.096l.24 1.02c-.16.056-.344.104-.552.144-.2.048-.416.072-.648.072zm2.807 2.28c-.16 0-.3-.012-.42-.036a1.7 1.7 0 01-.348-.084l.252-1.08c.056.016.12.032.192.048.08.024.156.036.228.036.312 0 .56-.096.744-.288.192-.184.336-.424.432-.72l.108-.372-2.316-5.82h1.404l1.02 2.892c.088.256.172.528.252.816l.264.84h.048c.072-.272.144-.548.216-.828l.228-.828.888-2.892h1.332l-2.136 6.156c-.12.336-.252.636-.396.9a2.736 2.736 0 01-.504.672c-.184.192-.4.336-.648.432-.24.104-.52.156-.84.156z" fill="#A0A0A0"/><path d="M60 322c33.137 0 60-26.863 60-60s-26.863-60-60-60-60 26.863-60 60 26.863 60 60 60z" fill="#262626"/><path d="M77.022 240.191c-5.97-2.745-13.755-4.425-22.29-4.425-8.52 0-16.305 1.665-22.275 4.41l22.29 12.87 22.275-12.855z" fill="#FFAD29"/><path d="M32.457 240.191v11.475l22.29 12.87v-11.49l-22.29-12.855z" fill="#FFCD2C"/><path d="M77.027 240.191v29.115l-22.275 12.87v-29.13l22.275-12.855z" fill="#EA872D"/><path d="M20.668 265.375V283.045c0 5.07 3.915 9.645 10.215 12.93v-22.2l-10.215-8.4z" fill="#57CCFF"/><path d="M30.871 286.932v9.045c6.15 3.21 14.565 5.19 23.865 5.19 9.3 0 17.73-1.98 23.88-5.19v-9.045H30.871z" fill="#1777C6"/><path d="M20.668 265.375c0 5.07 3.915 9.645 10.215 12.93l23.88-13.785-22.29-12.87c-7.23 3.345-11.805 8.25-11.805 13.725zM30.871 286.931c6.15 3.21 14.58 5.19 23.865 5.19 9.3 0 17.73-1.98 23.88-5.19l-23.865-13.785-23.88 13.785z" fill="#2CAAFF"/><path d="M54.751 264.537v8.61l-23.88 13.785v-8.61l23.88-13.785z" fill="#1777C6"/><path d="M99.332 254.199V236.529l-10.215 7.41v23.175c6.315-3.27 10.215-7.845 10.215-12.915z" fill="#CC2F6B"/><path d="M89.13 249.474c6.3-3.285 10.215-7.875 10.215-12.93 0-5.475-4.575-10.38-11.805-13.71l-22.29 12.87 23.88 13.77z" fill="#FF2E83"/><path d="M65.25 235.705v17.655l23.88 13.77v-17.655l-23.88-13.77z" fill="#FF61B0"/><path d="M232.996 138v-7.848h2.1c1.2 0 2.136.324 2.808.972.672.648 1.008 1.62 1.008 2.916 0 .648-.088 1.22-.264 1.716a3.246 3.246 0 01-.744 1.248 3.08 3.08 0 01-1.176.744c-.456.168-.976.252-1.56.252h-2.172zm1.392-1.128H235c.8 0 1.412-.228 1.836-.684.432-.464.648-1.18.648-2.148 0-.96-.216-1.66-.648-2.1-.432-.44-1.044-.66-1.836-.66h-.612v5.592zm8.658 1.272c-.408 0-.788-.068-1.14-.204a2.782 2.782 0 01-.924-.612 2.848 2.848 0 01-.624-.96 3.707 3.707 0 01-.216-1.308c0-.48.076-.912.228-1.296.152-.384.352-.708.6-.972.256-.264.548-.468.876-.612a2.484 2.484 0 011.008-.216c.4 0 .752.068 1.056.204.304.136.556.328.756.576.208.248.364.544.468.888a3.884 3.884 0 01.132 1.512c-.008.12-.02.216-.036.288h-3.744c.064.528.248.936.552 1.224.312.28.708.42 1.188.42.256 0 .492-.036.708-.108.224-.08.444-.188.66-.324l.468.864c-.28.184-.592.336-.936.456-.344.12-.704.18-1.08.18zm-1.572-3.648h2.616c0-.456-.1-.812-.3-1.068-.192-.264-.492-.396-.9-.396-.352 0-.66.124-.924.372s-.428.612-.492 1.092zm5.284 3.504v-5.892h1.14l.096 1.044h.048c.208-.384.46-.676.756-.876.296-.208.6-.312.912-.312.28 0 .504.04.672.12l-.24 1.2a1.85 1.85 0 00-.612-.096c-.232 0-.476.092-.732.276-.256.176-.476.488-.66.936v3.6h-1.38zm4.627 0v-5.892h1.38V138h-1.38zm.696-6.924a.88.88 0 01-.612-.216.723.723 0 01-.24-.564c0-.232.08-.42.24-.564a.853.853 0 01.612-.228c.248 0 .452.076.612.228.16.144.24.332.24.564 0 .232-.08.42-.24.564a.88.88 0 01-.612.216zm3.914 6.924l-2.052-5.892h1.404l.936 3.06c.08.288.16.58.24.876.088.296.172.596.252.9h.048c.088-.304.172-.604.252-.9.08-.296.164-.588.252-.876l.936-3.06h1.332L257.591 138h-1.596zm5.965.144c-.52 0-.94-.156-1.26-.468-.32-.32-.48-.74-.48-1.26 0-.312.064-.588.192-.828.136-.248.344-.46.624-.636a4.264 4.264 0 011.08-.444c.44-.12.964-.212 1.572-.276a1.876 1.876 0 00-.072-.432.852.852 0 00-.18-.372.73.73 0 00-.324-.252 1.18 1.18 0 00-.504-.096c-.288 0-.572.056-.852.168-.272.112-.54.248-.804.408l-.504-.924a5.903 5.903 0 011.104-.54 3.751 3.751 0 011.32-.228c.736 0 1.284.22 1.644.66.368.432.552 1.06.552 1.884V138h-1.14l-.096-.648h-.048a4.253 4.253 0 01-.852.564c-.296.152-.62.228-.972.228zm.444-1.08c.24 0 .456-.056.648-.168.2-.112.412-.272.636-.48v-1.32c-.4.048-.736.112-1.008.192s-.492.172-.66.276a.921.921 0 00-.36.336.82.82 0 00-.108.408c0 .264.08.456.24.576.16.12.364.18.612.18zm6.354 1.08c-.344 0-.636-.052-.876-.156a1.563 1.563 0 01-.576-.432 2.018 2.018 0 01-.324-.672 3.72 3.72 0 01-.096-.876V133.2h-.84v-1.032l.912-.06.168-1.608h1.152v1.608h1.5v1.092h-1.5v2.808c0 .688.276 1.032.828 1.032.104 0 .208-.012.312-.036.112-.024.212-.056.3-.096l.24 1.02c-.16.056-.344.104-.552.144-.2.048-.416.072-.648.072zm2.41-.144v-5.892h1.38V138h-1.38zm.696-6.924a.88.88 0 01-.612-.216.723.723 0 01-.24-.564c0-.232.08-.42.24-.564a.853.853 0 01.612-.228c.248 0 .452.076.612.228.16.144.24.332.24.564 0 .232-.08.42-.24.564a.88.88 0 01-.612.216zm3.915 6.924l-2.052-5.892h1.404l.936 3.06c.08.288.16.58.24.876.088.296.172.596.252.9h.048c.088-.304.172-.604.252-.9.08-.296.164-.588.252-.876l.936-3.06h1.332L277.375 138h-1.596zm7.221.144c-.408 0-.788-.068-1.14-.204a2.782 2.782 0 01-.924-.612 2.848 2.848 0 01-.624-.96 3.707 3.707 0 01-.216-1.308c0-.48.076-.912.228-1.296.152-.384.352-.708.6-.972.256-.264.548-.468.876-.612a2.484 2.484 0 011.008-.216c.4 0 .752.068 1.056.204.304.136.556.328.756.576.208.248.364.544.468.888a3.884 3.884 0 01.132 1.512c-.008.12-.02.216-.036.288h-3.744c.064.528.248.936.552 1.224.312.28.708.42 1.188.42.256 0 .492-.036.708-.108.224-.08.444-.188.66-.324l.468.864c-.28.184-.592.336-.936.456-.344.12-.704.18-1.08.18zm-1.572-3.648h2.616c0-.456-.1-.812-.3-1.068-.192-.264-.492-.396-.9-.396-.352 0-.66.124-.924.372s-.428.612-.492 1.092zm6.928 3.648c-.408 0-.812-.076-1.212-.228a4.058 4.058 0 01-1.02-.588l.648-.888c.264.208.524.372.78.492.264.112.548.168.852.168.32 0 .556-.064.708-.192a.662.662 0 00.228-.516.477.477 0 00-.108-.312.99.99 0 00-.288-.252 2.414 2.414 0 00-.408-.192l-.456-.192a7.215 7.215 0 01-.588-.252c-.2-.096-.38-.212-.54-.348a1.967 1.967 0 01-.384-.468 1.382 1.382 0 01-.144-.648c0-.52.192-.944.576-1.272.384-.328.908-.492 1.572-.492.408 0 .776.072 1.104.216.328.144.612.308.852.492l-.636.84a2.995 2.995 0 00-.636-.36 1.556 1.556 0 00-.66-.144c-.296 0-.516.064-.66.192a.582.582 0 00-.204.456c0 .12.032.224.096.312.072.08.164.152.276.216.112.064.24.124.384.18.152.056.308.112.468.168.2.072.4.156.6.252.2.088.38.2.54.336.168.136.3.304.396.504.104.192.156.424.156.696 0 .256-.052.496-.156.72-.096.216-.24.408-.432.576-.192.16-.432.288-.72.384a3.106 3.106 0 01-.984.144z" fill="#A0A0A0"/><path d="M260 120c33.137 0 60-26.863 60-60S293.137 0 260 0s-60 26.863-60 60 26.863 60 60 60z" fill="#262626"/><path d="M291.92 54.526l18.825-10.875-18.915-11.01-18.84 10.875 18.93 11.01z" fill="#FFAD29"/><path d="M310.743 43.65v11.43l-18.825 10.86V54.525l18.825-10.875z" fill="#FFCD2C"/><path d="M272.99 54.93V43.517l18.93 10.935v11.49l-18.93-11.01z" fill="#EA872D"/><path d="M263.446 69.736l18.825-10.875-18.915-11.025-18.84 10.875 18.93 11.025z" fill="#2CAAFF"/><path d="M282.27 58.861v24.75l-18.825 10.875v-24.75l18.825-10.875z" fill="#57CCFF"/><path d="M244.516 83.46V58.785l18.93 10.95v24.75l-18.93-11.025z" fill="#1777C6"/><path d="M232.68 87.345l18.825-10.875-18.915-11.025-18.84 10.875 18.93 11.025z" fill="#FF2E83"/><path d="M251.503 76.469v15.57l-18.825 10.875v-15.57l18.825-10.875z" fill="#FF61B0"/><path d="M213.75 91.903V76.318l18.93 11.025v15.57l-18.93-11.01z" fill="#CC2F6B"/><path d="M291.868 43.59V22.35l-28.47 15.96v20.775M232.678 76.035V55.86l30.72-17.55V28.2l-4.89 2.775V25.11l9.15-5.055v5.73l-4.26 2.415" stroke="#fff" stroke-width="1.075" stroke-miterlimit="10"/><path d="M432.604 133.824l-.276.96h2.004l-.276-.96a41.471 41.471 0 01-.372-1.284l-.336-1.308h-.048l-.336 1.32c-.112.432-.232.856-.36 1.272zM429.976 138l2.556-7.848h1.632L436.72 138h-1.464l-.612-2.124h-2.64l-.612 2.124h-1.416zm9.085.144c-.496 0-.844-.148-1.044-.444-.2-.296-.3-.7-.3-1.212v-6.96h1.38v7.032c0 .168.032.288.096.36a.287.287 0 00.204.096h.084a.515.515 0 00.132-.024l.18 1.032c-.184.08-.428.12-.732.12zm4.14 0c-.344 0-.636-.052-.876-.156a1.563 1.563 0 01-.576-.432 2.018 2.018 0 01-.324-.672 3.72 3.72 0 01-.096-.876V133.2h-.84v-1.032l.912-.06.168-1.608h1.152v1.608h1.5v1.092h-1.5v2.808c0 .688.276 1.032.828 1.032.104 0 .208-.012.312-.036.112-.024.212-.056.3-.096l.24 1.02c-.16.056-.344.104-.552.144-.2.048-.416.072-.648.072zm4.743 0c-.408 0-.788-.068-1.14-.204a2.782 2.782 0 01-.924-.612 2.848 2.848 0 01-.624-.96 3.707 3.707 0 01-.216-1.308c0-.48.076-.912.228-1.296.152-.384.352-.708.6-.972.256-.264.548-.468.876-.612a2.484 2.484 0 011.008-.216c.4 0 .752.068 1.056.204.304.136.556.328.756.576.208.248.364.544.468.888a3.884 3.884 0 01.132 1.512c-.008.12-.02.216-.036.288h-3.744c.064.528.248.936.552 1.224.312.28.708.42 1.188.42.256 0 .492-.036.708-.108.224-.08.444-.188.66-.324l.468.864c-.28.184-.592.336-.936.456-.344.12-.704.18-1.08.18zm-1.572-3.648h2.616c0-.456-.1-.812-.3-1.068-.192-.264-.492-.396-.9-.396-.352 0-.66.124-.924.372s-.428.612-.492 1.092zm5.284 3.504v-5.892h1.14l.096 1.044h.048c.208-.384.46-.676.756-.876.296-.208.6-.312.912-.312.28 0 .504.04.672.12l-.24 1.2a1.85 1.85 0 00-.612-.096c-.232 0-.476.092-.732.276-.256.176-.476.488-.66.936v3.6h-1.38zm4.626 0v-5.892h1.14l.096.792h.048a4.77 4.77 0 01.852-.66 2.086 2.086 0 011.08-.276c.632 0 1.092.204 1.38.612.288.4.432.976.432 1.728V138h-1.38v-3.516c0-.488-.072-.832-.216-1.032-.144-.2-.38-.3-.708-.3-.256 0-.484.064-.684.192-.192.12-.412.3-.66.54V138h-1.38zm8.293.144c-.52 0-.94-.156-1.26-.468-.32-.32-.48-.74-.48-1.26 0-.312.064-.588.192-.828.136-.248.344-.46.624-.636a4.264 4.264 0 011.08-.444c.44-.12.964-.212 1.572-.276a1.876 1.876 0 00-.072-.432.852.852 0 00-.18-.372.73.73 0 00-.324-.252 1.18 1.18 0 00-.504-.096c-.288 0-.572.056-.852.168-.272.112-.54.248-.804.408l-.504-.924a5.903 5.903 0 011.104-.54 3.751 3.751 0 011.32-.228c.736 0 1.284.22 1.644.66.368.432.552 1.06.552 1.884V138h-1.14l-.096-.648h-.048a4.253 4.253 0 01-.852.564c-.296.152-.62.228-.972.228zm.444-1.08c.24 0 .456-.056.648-.168.2-.112.412-.272.636-.48v-1.32c-.4.048-.736.112-1.008.192s-.492.172-.66.276a.921.921 0 00-.36.336.82.82 0 00-.108.408c0 .264.08.456.24.576.16.12.364.18.612.18zm6.354 1.08c-.344 0-.636-.052-.876-.156a1.563 1.563 0 01-.576-.432 2.018 2.018 0 01-.324-.672 3.72 3.72 0 01-.096-.876V133.2h-.84v-1.032l.912-.06.168-1.608h1.152v1.608h1.5v1.092h-1.5v2.808c0 .688.276 1.032.828 1.032.104 0 .208-.012.312-.036.112-.024.212-.056.3-.096l.24 1.02c-.16.056-.344.104-.552.144-.2.048-.416.072-.648.072zm2.41-.144v-5.892h1.38V138h-1.38zm.696-6.924a.88.88 0 01-.612-.216.723.723 0 01-.24-.564c0-.232.08-.42.24-.564a.853.853 0 01.612-.228c.248 0 .452.076.612.228.16.144.24.332.24.564 0 .232-.08.42-.24.564a.88.88 0 01-.612.216zm3.915 6.924l-2.052-5.892h1.404l.936 3.06c.08.288.16.58.24.876.088.296.172.596.252.9h.048c.088-.304.172-.604.252-.9.08-.296.164-.588.252-.876l.936-3.06h1.332L479.99 138h-1.596zm7.221.144c-.408 0-.788-.068-1.14-.204a2.782 2.782 0 01-.924-.612 2.848 2.848 0 01-.624-.96 3.707 3.707 0 01-.216-1.308c0-.48.076-.912.228-1.296.152-.384.352-.708.6-.972.256-.264.548-.468.876-.612a2.484 2.484 0 011.008-.216c.4 0 .752.068 1.056.204.304.136.556.328.756.576.208.248.364.544.468.888a3.884 3.884 0 01.132 1.512c-.008.12-.02.216-.036.288h-3.744c.064.528.248.936.552 1.224.312.28.708.42 1.188.42.256 0 .492-.036.708-.108.224-.08.444-.188.66-.324l.468.864c-.28.184-.592.336-.936.456-.344.12-.704.18-1.08.18zm-1.572-3.648h2.616c0-.456-.1-.812-.3-1.068-.192-.264-.492-.396-.9-.396-.352 0-.66.124-.924.372s-.428.612-.492 1.092zm6.928 3.648c-.408 0-.812-.076-1.212-.228a4.058 4.058 0 01-1.02-.588l.648-.888c.264.208.524.372.78.492.264.112.548.168.852.168.32 0 .556-.064.708-.192a.662.662 0 00.228-.516.477.477 0 00-.108-.312.99.99 0 00-.288-.252 2.414 2.414 0 00-.408-.192l-.456-.192a7.215 7.215 0 01-.588-.252c-.2-.096-.38-.212-.54-.348a1.967 1.967 0 01-.384-.468 1.382 1.382 0 01-.144-.648c0-.52.192-.944.576-1.272.384-.328.908-.492 1.572-.492.408 0 .776.072 1.104.216.328.144.612.308.852.492l-.636.84a2.995 2.995 0 00-.636-.36 1.556 1.556 0 00-.66-.144c-.296 0-.516.064-.66.192a.582.582 0 00-.204.456c0 .12.032.224.096.312.072.08.164.152.276.216.112.064.24.124.384.18.152.056.308.112.468.168.2.072.4.156.6.252.2.088.38.2.54.336.168.136.3.304.396.504.104.192.156.424.156.696 0 .256-.052.496-.156.72-.096.216-.24.408-.432.576-.192.16-.432.288-.72.384a3.106 3.106 0 01-.984.144z" fill="#A0A0A0"/><path d="M460 120c33.137 0 60-26.863 60-60S493.137 0 460 0s-60 26.863-60 60 26.863 60 60 60z" fill="#262626"/><path d="M440.861 41.896l27.226-4.365v2.183l-27.053 4.265-.173-2.083z" fill="#EA872D"/><path d="M475.894 72.897l-12.285-34.648 4.478-.718-17.725-10.066-9.501 14.43 5.612-.9 10.591 30.044 18.83 1.858z" fill="#FFAD29"/><path d="M425.91 100.194l25.747-32.015-14.998-8.56-25.747 32.001 14.998 8.574z" fill="#FF61B0"/><path d="M472.019 74.346l-20.365-6.167-14.998-8.56 20.365 6.167 14.998 8.56z" fill="#FF2E83"/><path d="M472.019 76.71l-20.365-6.181v-2.351l20.365 6.166v2.365z" fill="#CC2F6B"/><path d="M425.91 100.193v2.351l25.747-32.015v-2.351l-25.747 32.015zM410.91 91.62v2.364l14.998 8.56v-2.351l-14.998-8.574z" fill="#CC2F6B"/><path d="M486.429 37.728l-.115 3.084 2.168 2.576.832-2.21-2.885-3.45z" fill="#1777C6"/><path d="M457.025 65.787l32.292-24.61-2.885-3.449 20.581 2.028-3.718 15.81-3.631-4.308-28.158 22.892-14.481-8.363z" fill="#2CAAFF"/><path d="M499.66 51.26l-.143 2.562-27.498 22.892-.517-2.562L499.66 51.26zM503.292 55.568l-.244 2.675-3.53-4.336.143-2.647 3.631 4.308z" fill="#1777C6"/></svg>