<svg width="50" height="50" viewBox="0 0 50 50" fill="none" xmlns="http://www.w3.org/2000/svg"><path fill-rule="evenodd" clip-rule="evenodd" d="M25.275 22.233c-1.973 0-3.572-1.619-3.572-3.616 0-1.998 1.6-3.617 3.572-3.617 1.973 0 3.573 1.62 3.573 3.617 0 1.997-1.6 3.616-3.573 3.616zm5.16 12.86c.597 0 1.162-.133 1.669-.371a7.686 7.686 0 00.713-3.246v-.804c0-4.216-3.376-7.635-7.542-7.635-4.165 0-7.541 3.419-7.541 7.635v.804c0 1.16.255 2.26.713 3.246a3.913 3.913 0 001.668.37h10.32zm1.11-14.5c0 1.759 1.408 3.184 3.145 3.184 1.736 0 3.143-1.425 3.143-3.183 0-1.758-1.407-3.183-3.143-3.183-1.737 0-3.144 1.425-3.144 3.183zm9.333 13.805a4.126 4.126 0 01-2.298.695h-4.49a9.291 9.291 0 001.11-4.42c0-2.28-.816-4.368-2.168-5.98a6.637 6.637 0 018.295 6.428v.871c0 .849-.158 1.66-.449 2.406zm-25.24-10.621c1.736 0 3.144-1.425 3.144-3.183 0-1.758-1.408-3.183-3.144-3.183-1.736 0-3.144 1.425-3.144 3.183 0 1.758 1.408 3.183 3.144 3.183zm-3.89 11.316c-.85 0-1.64-.256-2.299-.695A6.62 6.62 0 019 31.992v-.871a6.637 6.637 0 018.295-6.428 9.274 9.274 0 00-2.168 5.98c0 1.6.403 3.107 1.11 4.42h-4.49z" fill="url(#paint0_linear_350_7665)"/><defs><linearGradient id="paint0_linear_350_7665" x1="9" y1="15" x2="39.544" y2="37.513" gradientUnits="userSpaceOnUse"><stop stop-color="#fff"/><stop offset="1" stop-color="#7F31FF"/></linearGradient></defs></svg>